<?xml version="1.0" encoding="utf-8"?>
<svg version="1.1" xmlns:xlink="http://www.w3.org/1999/xlink" width="40px" height="36px" xmlns="http://www.w3.org/2000/svg">
  <g transform="matrix(1 0 0 1 -1232 -18 )">
    <path d="M 35.049791666666664 22  C 35.827986111111116 22.222222222222218  36.50256944444445 21.683750000000007  36.675 20.924930555555555  L 39.95784722222222 6.480486111111122  C 40.19486111111112 5.437569444444444  39.40215277777777 4.444444444444434  38.332638888888894 5  L 11.056111111111113 5  L 10.419583333333321 1.3326388888888916  C 10.260972222222222 0.5570138888888778  9.578472222222217 0  8.786736111111122 0  L 1.6666666666666743 0  C 0.7461805555555656 0  0 0.7461805555555657  0 1.6666666666666743  L 0 2.7777777777777826  C 0 3.6982638888888912  0.7461805555555656 4.444444444444434  1.6666666666666743 4.444444444444434  L 6.519652777777787 4.444444444444434  L 11.397986111111118 28.294097222222216  C 10.230902777777784 28.965277777777782  9.444444444444434 30.223750000000017  9.444444444444434 31.666666666666675  C 9.444444444444434 33.81444444444446  11.185555555555561 35.555555555555564  13.333333333333325 35.555555555555564  C 15.481111111111112 35.555555555555564  17.222222222222218 33.81444444444446  17.222222222222218 31.666666666666675  C 17.222222222222218 30.578194444444446  16.774513888888897 29.594791666666673  16.053888888888878 28.888888888888893  L 30.61270833333333 28.888888888888893  C 29.892152777777778 29.594791666666673  29.444444444444432 30.578194444444446  29.444444444444432 31.666666666666675  C 29.444444444444432 33.81444444444446  31.18555555555556 35.555555555555564  33.33333333333335 35.555555555555564  C 35.48111111111111 35.555555555555564  37.22222222222222 33.81444444444446  37.22222222222222 31.666666666666675  C 37.22222222222222 30.12694444444446  36.32722222222223 28.796388888888895  35.02923611111112 28.166319444444458  L 35.41236111111112 26.480486111111123  C 35.649375000000006 25.437569444444442  34.85666666666666 24.444444444444457  33.787152777777784 24  L 15.147013888888887 24  L 14.692499999999995 22  L 35.049791666666664 22  Z " fill-rule="nonzero" fill="#0084cf" stroke="none" transform="matrix(1 0 0 1 1232 18 )" />
  </g>
</svg>