<?xml version="1.0" encoding="utf-8"?>
<svg version="1.1" xmlns:xlink="http://www.w3.org/1999/xlink" width="50px" height="14px" xmlns="http://www.w3.org/2000/svg">
  <g transform="matrix(1 0 0 1 -1293 -17 )">
    <path d="M 12.642045454545455 1.0208333333333328  C 13.30492424242424 1.7013888888888828  13.636363636363635 2.527777777777775  13.636363636363635 3.5  L 13.636363636363635 10.5  C 13.636363636363635 11.47222222222222  13.30492424242424 12.298611111111107  12.642045454545455 12.979166666666668  C 11.979166666666668 13.65972222222222  11.174242424242426 14  10.227272727272728 14  L 3.4090909090909087 14  C 2.4621212121212124 14  1.65719696969697 13.65972222222222  0.9943181818181818 12.979166666666668  C 0.3314393939393939 12.298611111111107  0 11.47222222222222  0 10.5  L 0 3.5  C 0 2.527777777777775  0.3314393939393939 1.7013888888888828  0.9943181818181818 1.0208333333333328  C 1.65719696969697 0.340277777777775  2.4621212121212124 0  3.4090909090909087 0  L 10.227272727272728 0  C 11.174242424242426 0  11.979166666666668 0.340277777777775  12.642045454545455 1.0208333333333328  Z M 30.823863636363637 1.0208333333333328  C 31.486742424242426 1.7013888888888828  31.818181818181817 2.527777777777775  31.818181818181817 3.5  L 31.818181818181817 10.5  C 31.818181818181817 11.47222222222222  31.486742424242426 12.298611111111107  30.823863636363637 12.979166666666668  C 30.160984848484855 13.65972222222222  29.35606060606061 14  28.40909090909091 14  L 21.59090909090909 14  C 20.643939393939394 14  19.839015151515156 13.65972222222222  19.176136363636363 12.979166666666668  C 18.513257575757578 12.298611111111107  18.181818181818183 11.47222222222222  18.181818181818183 10.5  L 18.181818181818183 3.5  C 18.181818181818183 2.527777777777775  18.513257575757578 1.7013888888888828  19.176136363636363 1.0208333333333328  C 19.839015151515156 0.340277777777775  20.643939393939394 0  21.59090909090909 0  L 28.40909090909091 0  C 29.35606060606061 0  30.160984848484855 0.340277777777775  30.823863636363637 1.0208333333333328  Z M 49.00568181818182 1.0208333333333328  C 49.66856060606061 1.7013888888888828  50 2.527777777777775  50 3.5  L 50 10.5  C 50 11.47222222222222  49.66856060606061 12.298611111111107  49.00568181818182 12.979166666666668  C 48.34280303030303 13.65972222222222  47.53787878787879 14  46.590909090909086 14  L 39.77272727272727 14  C 38.82575757575758 14  38.020833333333336 13.65972222222222  37.35795454545455 12.979166666666668  C 36.695075757575765 12.298611111111107  36.36363636363637 11.47222222222222  36.36363636363637 10.5  L 36.36363636363637 3.5  C 36.36363636363637 2.527777777777775  36.695075757575765 1.7013888888888828  37.35795454545455 1.0208333333333328  C 38.020833333333336 0.340277777777775  38.82575757575758 0  39.77272727272727 0  L 46.590909090909086 0  C 47.53787878787879 0  48.34280303030303 0.340277777777775  49.00568181818182 1.0208333333333328  Z " fill-rule="nonzero" fill="#5800aa" stroke="none" transform="matrix(1 0 0 1 1293 17 )" />
  </g>
</svg>