<?xml version="1.0" encoding="utf-8"?>
<svg version="1.1" xmlns:xlink="http://www.w3.org/1999/xlink" width="56px" height="56px" xmlns="http://www.w3.org/2000/svg">
  <g transform="matrix(1 0 0 1 -1093 -451 )">
    <path d="M 45.97395833333333 31.973958333333336  C 46.43576388888889 31.512152777777775  46.66666666666667 30.965277777777775  46.66666666666667 30.333333333333336  L 46.66666666666667 25.666666666666668  C 46.66666666666667 25.034722222222218  46.43576388888889 24.487847222222218  45.97395833333333 24.026041666666668  C 45.51215277777778 23.564236111111114  44.96527777777778 23.333333333333332  44.33333333333333 24  L 26.03125 24  L 32.921875 16.442708333333332  C 33.38368055555556 15.980902777777775  33.61458333333333 15.434027777777775  33.61458333333333 14.802083333333332  C 33.61458333333333 14.170138888888882  33.38368055555556 13.623263888888882  32.921875 13.161458333333332  L 29.604166666666668 9.84375  C 29.166666666666668 9.40625  28.619791666666668 9.1875  27.963541666666664 9.1875  C 27.307291666666664 9.1875  26.760416666666664 9.40625  26.322916666666664 9.84375  L 13.125 23.041666666666668  L 9.807291666666668 26.359375  C 9.369791666666668 26.796875  9.151041666666668 27.34375  9.151041666666668 28  C 9.151041666666668 28.65625  9.369791666666668 29.203125  9.807291666666668 29.640625  L 13.125 32.958333333333336  L 26.322916666666664 46.15625  C 26.760416666666664 46.59375  27.307291666666664 46.8125  27.963541666666664 46.8125  C 28.619791666666668 46.8125  29.166666666666668 46.59375  29.604166666666668 46.15625  L 32.921875 42.83854166666667  C 33.35937500000001 42.40104166666667  33.57812500000001 41.854166666666664  33.578125 41.197916666666664  C 33.57812500000001 40.541666666666664  33.35937500000001 39.994791666666664  32.921875 39.557291666666664  L 26.03125 32  L 44.33333333333333 32  C 44.96527777777778 32.666666666666664  45.51215277777778 32.435763888888886  45.97395833333333 31.973958333333336  Z M 52.24479166666667 13.9453125  C 54.74826388888888 18.23524305555555  56 22.920138888888882  56 28  C 56 33.079861111111114  54.74826388888888 37.764756944444436  52.24479166666667 42.0546875  C 49.74131944444445 46.34461805555556  46.34461805555556 49.74131944444444  42.0546875 52.24479166666667  C 37.76475694444445 54.74826388888889  33.079861111111114 56  28 56  C 22.92013888888889 56  18.235243055555557 54.74826388888889  13.9453125 52.24479166666667  C 9.655381944444445 49.74131944444444  6.258680555555556 46.34461805555556  3.7552083333333335 42.0546875  C 1.251736111111111 37.764756944444436  0 33.079861111111114  0 28  C 0 22.920138888888882  1.251736111111111 18.23524305555555  3.7552083333333335 13.9453125  C 6.258680555555556 9.655381944444443  9.655381944444445 6.25868055555555  13.9453125 3.7552083333333313  C 18.235243055555557 1.2517361111111063  22.92013888888889 0  28 0  C 33.079861111111114 0  37.76475694444445 1.2517361111111063  42.0546875 3.7552083333333313  C 46.34461805555556 6.25868055555555  49.74131944444445 9.655381944444443  52.24479166666667 13.9453125  Z " fill-rule="nonzero" fill="#ffffff" stroke="none" transform="matrix(1 0 0 1 1093 451 )" />
  </g>
</svg>