<?xml version="1.0" encoding="utf-8"?>
<svg version="1.1" xmlns:xlink="http://www.w3.org/1999/xlink" width="279px" height="169px" xmlns="http://www.w3.org/2000/svg">
  <g transform="matrix(1 0 0 1 -843 -185 )">
    <path d="M 272.9280133928571 4.885156250000004  C 276.9760044642857 6.381510416666661  279 8.978124999999997  279 12.674999999999992  L 279 156.32500000000002  C 279 160.021875  276.9760044642857 162.61848958333334  272.9280133928571 164.11484375  C 271.5786830357143 164.55494791666666  270.28125000000006 164.775  269.0357142857143 164.775  C 266.23325892857144 164.775  263.8978794642857 163.93880208333334  262.0295758928571 162.26640625000002  L 199 109.0578125  L 199 130.975  C 199.28571428571428 141.44947916666666  194.900390625 150.40559895833334  186.12974330357142 157.843359375  C 177.35909598214286 165.28111979166664  166.79799107142858 169  154.44642857142858 169  L 44.839285714285715 169  C 32.48772321428572 169  21.92661830357143 165.28111979166664  13.155970982142858 157.843359375  C 4.385323660714286 150.40559895833334  0 141.44947916666666  0 130.975  L 0 38.025  C 0 27.550520833333305  4.385323660714286 18.59440104166666  13.155970982142858 11.156640625000003  C 21.92661830357143 3.7188802083333097  32.48772321428572 0  44.839285714285715 0  L 154.44642857142858 0  C 166.79799107142858 0  177.35909598214286 3.7188802083333097  186.12974330357142 11.156640625000003  C 194.900390625 18.59440104166666  199.28571428571428 27.550520833333305  199 38.025  L 199 59.81015625  L 262.0295758928571 6.733593749999993  C 263.8978794642857 5.061197916666661  266.23325892857144 4.225000000000004  269.0357142857143 4.225000000000004  C 270.28125000000006 4.225000000000004  271.5786830357143 4.445052083333306  272.9280133928571 4.885156250000004  Z " fill-rule="nonzero" fill="#5800aa" stroke="none" transform="matrix(1 0 0 1 843 185 )" />
  </g>
</svg>