<?xml version="1.0" encoding="utf-8"?>
<svg version="1.1" xmlns:xlink="http://www.w3.org/1999/xlink" width="36px" height="36px" xmlns="http://www.w3.org/2000/svg">
  <g transform="matrix(1 0 0 1 -487 -15 )">
    <path d="M 25.151785714285715 31.67075892857143  C 27.361607142857146 30.49888392857143  29.176339285714292 28.90848214285714  30.595982142857146 26.89955357142857  C 30.301339285714292 24.823660714285715  29.71540178571429 23.099330357142858  28.838169642857146 21.7265625  C 27.9609375 20.353794642857142  26.72544642857143 19.560267857142854  25.13169642857143 19.34598214285714  C 24.234375 20.33705357142857  23.166294642857142 21.11049107142857  21.927455357142854 21.66629464285714  C 20.688616071428577 22.222098214285715  19.37946428571429 22.5  18 22.5  C 16.620535714285715 22.5  15.31138392857143 22.222098214285715  14.072544642857142 21.66629464285714  C 12.83370535714286 21.11049107142857  11.765625 20.33705357142857  10.868303571428573 19.34598214285714  C 9.274553571428571 19.560267857142854  8.0390625 20.353794642857142  7.161830357142858 21.7265625  C 6.284598214285715 23.099330357142858  5.698660714285714 24.823660714285715  5.404017857142858 26.89955357142857  C 6.823660714285714 28.90848214285714  8.638392857142858 30.49888392857143  10.848214285714285 31.67075892857143  C 13.058035714285715 32.84263392857143  15.441964285714288 33.42857142857143  18 33.42857142857143  C 20.558035714285715 33.42857142857143  22.941964285714285 32.84263392857143  25.151785714285715 31.67075892857143  Z M 23.45424107142857 18.31138392857143  C 24.9609375 16.8046875  25.714285714285715 14.986607142857144  25.714285714285715 12.857142857142856  C 25.714285714285715 10.72767857142857  24.9609375 8.909598214285715  23.45424107142857 7.402901785714285  C 21.947544642857146 5.896205357142856  20.129464285714285 5.142857142857144  18 5.142857142857144  C 15.870535714285715 5.142857142857144  14.052455357142858 5.896205357142856  12.545758928571427 7.402901785714285  C 11.0390625 8.909598214285715  10.285714285714285 10.72767857142857  10.285714285714285 12.857142857142856  C 10.285714285714285 14.986607142857144  11.0390625 16.8046875  12.545758928571427 18.31138392857143  C 14.052455357142858 19.81808035714286  15.870535714285715 20.57142857142857  18 20.57142857142857  C 20.129464285714285 20.57142857142857  21.947544642857146 19.81808035714286  23.45424107142857 18.31138392857143  Z M 34.573660714285715 11.00892857142857  C 35.52455357142858 13.232142857142854  36 15.562499999999998  36 18  C 36 20.437499999999996  35.52455357142858 22.764508928571423  34.573660714285715 24.981026785714285  C 33.62276785714286 27.197544642857142  32.34709821428572 29.112723214285715  30.746651785714285 30.7265625  C 29.14620535714286 32.340401785714285  27.234375000000004 33.62276785714286  25.011160714285715 34.573660714285715  C 22.78794642857143 35.52455357142857  20.450892857142854 36  18 36  C 15.5625 36  13.232142857142858 35.52455357142857  11.008928571428573 34.573660714285715  C 8.785714285714286 33.62276785714286  6.8705357142857135 32.34375  5.263392857142858 30.73660714285714  C 3.65625 29.129464285714285  2.377232142857143 27.214285714285715  1.4263392857142856 24.99107142857143  C 0.4754464285714285 22.767857142857142  0 20.437499999999996  0 18  C 0 15.562499999999998  0.4754464285714285 13.232142857142854  1.4263392857142856 11.00892857142857  C 2.377232142857143 8.785714285714283  3.65625 6.870535714285715  5.263392857142858 5.263392857142856  C 6.8705357142857135 3.65625  8.785714285714286 2.377232142857142  11.008928571428573 1.4263392857142851  C 13.232142857142858 0.4754464285714284  15.5625 0  18 0  C 20.4375 0  22.767857142857146 0.4754464285714284  24.99107142857143 1.4263392857142851  C 27.21428571428572 2.377232142857142  29.129464285714285 3.65625  30.736607142857146 5.263392857142856  C 32.34375000000001 6.870535714285715  33.62276785714286 8.785714285714283  34.573660714285715 11.00892857142857  Z " fill-rule="nonzero" fill="#5800aa" stroke="none" transform="matrix(1 0 0 1 487 15 )" />
  </g>
</svg>