<?xml version="1.0" encoding="utf-8"?>
<svg version="1.1" xmlns:xlink="http://www.w3.org/1999/xlink" width="7px" height="22px" xmlns="http://www.w3.org/2000/svg">
  <g transform="matrix(1 0 0 1 64 -137 )">
    <path d="M 0 11  C 0 9.234677419354844  1.5147849462365608 7.806451612903229  3.387096774193545 7.806451612903229  C 5.259408602150542 7.806451612903229  6.774193548387103 9.234677419354844  6.774193548387103 11  C 6.774193548387103 12.765322580645156  5.259408602150542 14.193548387096772  3.387096774193545 14.193548387096772  C 1.5147849462365608 14.193548387096772  0 12.765322580645156  0 11  Z M 3.387096774193545 0  C 1.5147849462365608 0  0 1.4282258064516147  0 3.193548387096771  C 0 4.958870967741928  1.5147849462365608 6.387096774193542  3.387096774193545 6.387096774193542  C 5.259408602150542 6.387096774193542  6.774193548387103 4.958870967741928  6.774193548387103 3.193548387096771  C 6.774193548387103 1.4282258064516147  5.259408602150542 0  3.387096774193545 0  Z M 3.387096774193545 15.612903225806457  C 1.5147849462365608 15.612903225806457  0 17.041129032258073  0 18.806451612903228  C 0 20.571774193548386  1.5147849462365608 22  3.387096774193545 22  C 5.259408602150542 22  6.774193548387103 20.571774193548386  6.774193548387103 18.806451612903228  C 6.774193548387103 17.041129032258073  5.259408602150542 15.612903225806457  3.387096774193545 15.612903225806457  Z " fill-rule="nonzero" fill="#ffffff" stroke="none" transform="matrix(1 0 0 1 -64 137 )" />
  </g>
</svg>