<?xml version="1.0" encoding="utf-8"?>
<svg version="1.1" xmlns:xlink="http://www.w3.org/1999/xlink" width="28px" height="28px" xmlns="http://www.w3.org/2000/svg">
  <g transform="matrix(1 0 0 1 -1023 -22 )">
    <path d="M 27.94034090909091 21.696022727272727  C 27.980113636363637 21.788825757575754  28 21.928030303030297  28 22.113636363636363  C 28 22.471590909090907  27.93371212121212 22.938920454545453  27.801136363636363 23.515625  C 27.66856060606061 24.092329545454547  27.529356060606062 24.546401515151512  27.383522727272727 24.877840909090907  C 27.105113636363637 25.540719696969695  26.29640151515152 26.24337121212121  24.957386363636363 26.985795454545453  C 23.711174242424246 27.661931818181817  22.4782196969697 28  21.258522727272727 28  C 20.900568181818183 28  20.549242424242426 27.976799242424242  20.204545454545453 27.930397727272727  C 19.859848484848488 27.883996212121215  19.478693181818187 27.801136363636363  19.061079545454547 27.681818181818183  C 18.64346590909091 27.5625  18.331912878787882 27.466382575757578  18.126420454545453 27.39346590909091  C 17.92092803030303 27.320549242424242  17.553030303030305 27.18465909090909  17.022727272727273 26.985795454545453  C 16.492424242424246 26.786931818181817  16.16761363636364 26.667613636363637  16.048295454545453 26.62784090909091  C 14.749053030303033 26.163825757575758  13.589015151515152 25.613636363636363  12.568181818181818 24.977272727272727  C 10.884469696969697 23.929924242424242  9.134469696969697 22.49810606060606  7.318181818181818 20.681818181818183  C 5.5018939393939394 18.865530303030297  4.070075757575758 17.115530303030305  3.022727272727273 15.431818181818182  C 2.3863636363636362 14.410984848484848  1.8361742424242427 13.250946969696967  1.3721590909090908 11.951704545454547  C 1.3323863636363635 11.832386363636362  1.2130681818181819 11.507575757575754  1.0142045454545454 10.977272727272728  C 0.8153409090909091 10.446969696969695  0.6794507575757577 10.079071969696967  0.6065340909090909 9.873579545454547  C 0.5336174242424243 9.66808712121212  0.4375 9.35653409090909  0.3181818181818182 8.938920454545453  C 0.19886363636363635 8.521306818181815  0.1160037878787879 8.140151515151514  0.06960227272727272 7.795454545454547  C 0.023200757575757572 7.450757575757573  0 7.099431818181818  0 6.741477272727272  C 0 5.521780303030301  0.3380681818181818 4.288825757575755  1.0142045454545454 3.042613636363636  C 1.756628787878788 1.7035984848484804  2.4592803030303028 0.8948863636363642  3.122159090909091 0.6164772727272716  C 3.4535984848484853 0.4706439393939372  3.9076704545454546 0.3314393939393909  4.484375 0.1988636363636358  C 5.061079545454546 0.06628787878787756  5.528409090909091 0  5.886363636363637 0  C 6.071969696969698 0  6.211174242424243 0.0198863636363642  6.3039772727272725 0.059659090909089496  C 6.542613636363637 0.1392045454545463  6.8939393939393945 0.6429924242424239  7.357954545454545 1.5710227272727284  C 7.503787878787879 1.8229166666666625  7.7026515151515165 2.180871212121209  7.954545454545455 2.644886363636364  C 8.206439393939394 3.1089015151515134  8.43844696969697 3.5298295454545463  8.650568181818182 3.9076704545454537  C 8.862689393939394 4.285511363636364  9.068181818181818 4.640151515151514  9.267045454545455 4.97159090909091  C 9.306818181818182 5.024621212121209  9.42282196969697 5.19034090909091  9.615056818181818 5.46875  C 9.807291666666668 5.74715909090909  9.949810606060607 5.98248106060606  10.042613636363637 6.17471590909091  C 10.135416666666668 6.366950757575755  10.181818181818182 6.555871212121209  10.181818181818182 6.741477272727272  C 10.181818181818182 7.006628787878785  9.992897727272727 7.338068181818182  9.615056818181818 7.735795454545453  C 9.237215909090908 8.133522727272728  8.82623106060606 8.498106060606059  8.382102272727273 8.829545454545453  C 7.937973484848485 9.160984848484844  7.526988636363636 9.512310606060606  7.149147727272727 9.883522727272728  C 6.771306818181818 10.254734848484848  6.582386363636363 10.55965909090909  6.582386363636363 10.798295454545453  C 6.582386363636363 10.917613636363637  6.615530303030304 11.066761363636363  6.681818181818182 11.245738636363637  C 6.748106060606061 11.42471590909091  6.804450757575758 11.560606060606059  6.8508522727272725 11.65340909090909  C 6.897253787878789 11.74621212121212  6.990056818181818 11.90530303030303  7.129261363636364 12.130681818181818  C 7.268465909090909 12.356060606060606  7.344696969696971 12.482007575757576  7.357954545454545 12.508522727272728  C 8.365530303030303 14.324810606060602  9.518939393939394 15.882575757575754  10.818181818181818 17.181818181818183  C 12.117424242424244 18.481060606060602  13.675189393939396 19.634469696969695  15.491477272727272 20.642045454545457  C 15.517992424242424 20.655303030303028  15.643939393939394 20.731534090909093  15.869318181818182 20.870738636363637  C 16.09469696969697 21.009943181818183  16.253787878787882 21.102746212121207  16.34659090909091 21.149147727272727  C 16.43939393939394 21.195549242424242  16.57528409090909 21.251893939393938  16.754261363636363 21.318181818181817  C 16.933238636363637 21.384469696969695  17.082386363636363 21.417613636363637  17.201704545454547 21.417613636363637  C 17.44034090909091 21.417613636363637  17.745265151515152 21.228693181818183  18.116477272727273 20.850852272727273  C 18.487689393939394 20.473011363636363  18.839015151515156 20.062026515151512  19.170454545454547 19.617897727272727  C 19.50189393939394 19.173768939393934  19.866477272727273 18.762784090909093  20.264204545454547 18.384943181818183  C 20.661931818181817 18.007102272727273  20.993371212121215 17.818181818181817  21.258522727272727 17.818181818181817  C 21.444128787878793 17.818181818181817  21.633049242424246 17.864583333333332  21.82528409090909 17.957386363636363  C 22.01751893939394 18.05018939393939  22.25284090909091 18.192708333333332  22.53125 18.384943181818183  C 22.80965909090909 18.577178030303028  22.975378787878793 18.693181818181817  23.02840909090909 18.732954545454543  C 23.359848484848488 18.931818181818183  23.714488636363637 19.137310606060602  24.092329545454547 19.349431818181817  C 24.470170454545453 19.561553030303028  24.891098484848488 19.793560606060602  25.355113636363637 20.045454545454543  C 25.819128787878793 20.297348484848484  26.177083333333336 20.496212121212118  26.428977272727273 20.642045454545457  C 27.357007575757578 21.106060606060602  27.860795454545453 21.457386363636363  27.94034090909091 21.696022727272727  Z " fill-rule="nonzero" fill="#ffffff" stroke="none" transform="matrix(1 0 0 1 1023 22 )" />
  </g>
</svg>