<?xml version="1.0" encoding="utf-8"?>
<svg version="1.1" xmlns:xlink="http://www.w3.org/1999/xlink" width="424px" height="546px" xmlns="http://www.w3.org/2000/svg">
  <g transform="matrix(1 0 0 1 212 -50 )">
    <path d="M 0 50  C 118.72000000000003 50  212 170.12  212 323  C 212 475.88  118.72000000000003 596  0 596  C -118.72000000000001 596  -212 475.88  -212 323  C -212 170.12  -118.72000000000001 50  0 50  Z " fill-rule="nonzero" fill="#c280ff" stroke="none" />
    <path d="M 0 50.5  C 118.44 50.5  211.5 170.39999999999998  211.5 323  C 211.5 475.6  118.44 595.5  0 595.5  C -118.44000000000001 595.5  -211.5 475.6  -211.5 323  C -211.5 170.39999999999998  -118.44000000000001 50.5  0 50.5  Z " stroke-width="1" stroke="#797979" fill="none" />
  </g>
</svg>