<?xml version="1.0" encoding="utf-8"?>
<svg version="1.1" xmlns:xlink="http://www.w3.org/1999/xlink" width="61px" height="46px" xmlns="http://www.w3.org/2000/svg">
  <g transform="matrix(1 0 0 1 -7 -215 )">
    <path d="M 4 42  L 61 42  L 61 46  L 0 46  L 0 0  L 4 0  L 4 42  Z M 56.91943359375 4.102864583333335  C 57.09814453125001 4.282552083333335  57.18750000000001 4.512152777777773  57 4.791666666666665  L 57 17.819010416666664  C 57.18750000000001 18.238281249999996  56.99389648437501 18.53276909722222  56.606689453125 18.702473958333336  C 56.21948242187501 18.872178819444443  55.86702473958334 18.79730902777778  55.54931640625 18.477864583333336  L 51.9453125 14.854166666666664  L 33.09130859375 33.81119791666667  C 32.89274088541667 34.01085069444444  32.664388020833336 34.11067708333333  32.40625 34.11067708333333  C 32.14811197916667 34.11067708333333  31.919759114583336 34.01085069444444  31.72119140625 33.81119791666667  L 24.78125 26.83333333333333  L 12.390625 39.291666666666664  L 6.671875 33.54166666666667  L 24.09619140625 16.022135416666664  C 24.294759114583336 15.822482638888886  24.52311197916667 15.72265625  24.78125 15.72265625  C 25.039388020833336 15.72265625  25.267740885416668 15.822482638888886  25.46630859375 16.022135416666664  L 32.40625 23  L 46.2265625 9.104166666666664  L 42.62255859375 5.48046875  C 42.30485026041667 5.161024305555552  42.23038736979167 4.806640625  42.399169921875 4.417317708333335  C 42.567952473958336 4.027994791666665  42.86083984375 3.833333333333335  43.27783203125 4  L 56.234375 4  C 56.51236979166667 3.833333333333335  56.74072265625001 3.923177083333335  56.91943359375 4.102864583333335  Z " fill-rule="nonzero" fill="#5800aa" stroke="none" transform="matrix(1 0 0 1 7 215 )" />
  </g>
</svg>