<?xml version="1.0" encoding="utf-8"?>
<svg version="1.1" xmlns:xlink="http://www.w3.org/1999/xlink" width="63px" height="47px" xmlns="http://www.w3.org/2000/svg">
  <g transform="matrix(1 0 0 1 -483 -214 )">
    <path d="M 30.008056640625 20.0576171875  C 27.700927734375 22.3525390625  24.9169921875 23.5  21.65625 23.5  C 18.3955078125 23.5  15.611572265625 22.3525390625  13.304443359375 20.0576171875  C 10.997314453125 17.7626953125  9.84375 14.993489583333332  9.84375 11.75  C 9.84375 8.506510416666668  10.997314453125 5.7373046875  13.304443359375 3.4423828125  C 15.611572265625 1.1474609375  18.3955078125 0  21.65625 0  C 24.9169921875 0  27.700927734375 1.1474609375  30.008056640625 3.4423828125  C 32.315185546875 5.7373046875  33.46875 8.506510416666668  33.46875 11.75  C 33.46875 14.993489583333332  32.315185546875 17.7626953125  30.008056640625 20.0576171875  Z M 51 16.645833333333332  L 51 27  L 62.015625 27  C 62.2822265625 27.416666666666664  62.512939453125 27.51356336805555  62.707763671875 27.707356770833336  C 62.90258789062501 27.90115017361111  63 28.13064236111111  63 28.395833333333336  L 63 34.270833333333336  C 63 34.53602430555555  62.90258789062501 34.76551649305555  62.707763671875 34.959309895833336  C 62.512939453125 35.153103298611114  62.2822265625 35.25  62.015625 35  L 51 35  L 51 46.02083333333333  C 51.1875 46.28602430555556  51.09008789062501 46.51551649305556  50.895263671875 46.70930989583333  C 50.700439453125 46.90310329861111  50.4697265625 47  50.203125 47  L 44.296875 47  C 44.03027343750001 47  43.79956054687501 46.90310329861111  43.604736328125 46.70930989583333  C 43.409912109375 46.51551649305556  43.3125 46.28602430555556  43 46.02083333333333  L 43 35  L 32.484375 35  C 32.21777343750001 35.25  31.987060546875004 35.153103298611114  31.792236328125 34.959309895833336  C 31.597412109375004 34.76551649305555  31.5 34.53602430555555  31.5 34.270833333333336  L 31.5 28.395833333333336  C 31.5 28.13064236111111  31.597412109375004 27.90115017361111  31.792236328125 27.707356770833336  C 31.987060546875004 27.51356336805555  32.21777343750001 27.416666666666664  32.484375 27  L 43 27  L 43 16.645833333333332  C 43.3125 16.380642361111107  43.409912109375 16.151150173611107  43.604736328125 15.957356770833332  C 43.79956054687501 15.763563368055555  44.03027343750001 15.666666666666668  44.296875 15.666666666666668  L 50.203125 15.666666666666668  C 50.4697265625 15.666666666666668  50.700439453125 15.763563368055555  50.895263671875 15.957356770833332  C 51.09008789062501 16.151150173611107  51.1875 16.380642361111107  51 16.645833333333332  Z M 28.546875 28.395833333333336  L 28.546875 34.270833333333336  C 28.546875 35.33159722222222  28.936523437500004 36.24956597222222  29.7158203125 37.02473958333333  C 30.4951171875 37.79991319444444  31.41796875 38.1875  32.484375 38.1875  L 40.359375 38.1875  L 40.359375 45.47005208333333  C 38.96484375 46.49001736111111  37.21142578125 47  35.09912109375 47  L 8.21337890625 47  C 5.73193359375 47  3.74267578125 46.29622395833333  2.24560546875 44.888671875  C 0.74853515625 43.48111979166667  0 41.54318576388889  0 39.07486979166667  C 0 37.99370659722222  0.03588867187499999 36.93804253472222  0.107666015625 35.90787760416667  C 0.17944335937500003 34.877712673611114  0.322998046875 33.765950520833336  0.538330078125 32.572591145833336  C 0.753662109375 31.379231770833336  1.025390625 30.27256944444444  1.353515625 29.252604166666664  C 1.6816406250000002 28.23263888888889  2.12255859375 27.23817274305555  2.67626953125 26.269205729166664  C 3.2299804687500004 25.300238715277775  3.8657226562500004 24.474066840277775  4.58349609375 23.790690104166664  C 5.30126953125 23.107313368055557  6.177978515625 22.561631944444443  7.213623046875 22.153645833333332  C 8.249267578125 21.745659722222218  9.392578125000002 21.541666666666668  10.6435546875 21.541666666666668  C 11.033203125 21.541666666666668  11.43310546875 21.71506076388889  11.84326171875 22.061848958333332  C 13.46337890625 23.306206597222218  15.047607421875 24.23947482638889  16.595947265625 24.861653645833336  C 18.144287109375 25.483832465277775  19.831054687500004 25.794921875  21.65625 25.794921875  C 23.4814453125 25.794921875  25.168212890625004 25.483832465277775  26.716552734375 24.861653645833336  C 28.264892578125 24.23947482638889  29.84912109375 23.306206597222218  31.46923828125 22.061848958333332  C 31.879394531250004 21.71506076388889  32.27929687500001 21.541666666666668  32.6689453125 21.541666666666668  C 35.3759765625 21.541666666666668  37.60107421875001 22.520833333333332  39.34423828125 24.479166666666664  L 32.484375 24.479166666666664  C 31.41796875 24.479166666666664  30.4951171875 24.866753472222225  29.7158203125 25.641927083333336  C 28.936523437500004 26.41710069444444  28.546875 27.33506944444444  28.546875 28.395833333333336  Z " fill-rule="nonzero" fill="#5800aa" stroke="none" transform="matrix(1 0 0 1 483 214 )" />
  </g>
</svg>