<?xml version="1.0" encoding="utf-8"?>
<svg version="1.1" xmlns:xlink="http://www.w3.org/1999/xlink" width="61px" height="47px" xmlns="http://www.w3.org/2000/svg">
  <g transform="matrix(1 0 0 1 -803 -214 )">
    <path d="M 33.699776785714285 6.004258339247692  C 30.681547619047617 4.847882659096283  27.436383928571427 4.269694819020582  23.964285714285715 4.269694819020582  C 20.4921875 4.269694819020582  17.24702380952381 4.847882659096283  14.228794642857142 6.004258339247692  C 11.210565476190476 7.160634019399097  8.810732886904763 8.728412585758214  7.029296875 10.707594038325052  C 5.247860863095238 12.686775490891884  4.357142857142857 14.81050390347764  4.357142857142857 17.078779276082326  C 4.357142857142857 18.9022947717057  4.958519345238097 20.659096285781875  6.161272321428571 22.34918381831086  C 7.364025297619048 24.03927135083984  9.0546875 25.506978944878163  11.233258928571429 26.752306600425836  L 14.53515625 28.62029808374734  L 13.34375 31.422285308729595  C 14.115327380952383 30.97752543174828  14.818824404761907 30.543884551691505  15.454241071428573 30.12136266855926  L 16.952008928571427 29.087295954577716  L 18.756138392857142 29.420865862313697  C 20.526227678571427 29.73219777620062  22.262276785714285 29.887863733144073  23.964285714285715 29.887863733144073  C 27.436383928571427 29.887863733144073  30.681547619047617 29.309675893068373  33.699776785714285 28.153300212916964  C 36.718005952380956 26.996924532765554  39.11783854166667 25.429145966406434  40.89927455357143 23.4499645138396  C 42.6807105654762 21.47078306127277  43.57142857142857 19.34705464868701  43.57142857142857 17.078779276082326  C 43.57142857142857 14.81050390347764  42.6807105654762 12.686775490891884  40.89927455357143 10.707594038325052  C 39.11783854166667 8.728412585758214  36.718005952380956 7.160634019399097  33.699776785714285 6.004258339247692  Z M 11.931082589285714 2.284953867991485  C 15.618768601190476 0.7616512893304933  19.629836309523814 0  23.964285714285715 0  C 28.29873511904762 0  32.309802827380956 0.7616512893304933  35.997488839285715 2.284953867991485  C 39.68517485119048 3.8082564466524667  42.59561011904763 5.881949373077829  44.728794642857146 8.506032647267565  C 46.86197916666667 11.130115921457293  47.92857142857143 13.987698131062217  47.92857142857143 17.078779276082326  C 47.92857142857143 20.169860421102435  46.86197916666667 23.027442630707355  44.728794642857146 25.651525904897092  C 42.59561011904763 28.275609179086818  39.68517485119048 30.34930210551218  35.997488839285715 31.872604684173172  C 32.309802827380956 33.39590726283415  28.29873511904762 34.15755855216466  23.964285714285715 34.15755855216466  C 22.012648809523814 34.15755855216466  20.015625 33.979654601372125  17.973214285714285 33.62384669978709  C 15.159226190476193 35.58079015850485  12.00483630952381 37.00402176484504  8.510044642857142 37.893541518807666  C 7.693080357142857 38.09368346344926  6.717261904761905 38.27158741424178  5.582589285714286 38.42725337118524  L 5.48046875 38.42725337118524  C 5.230840773809525 38.42725337118524  4.998232886904763 38.338301395788974  4.782645089285714 38.160397444996455  C 4.567057291666667 37.98249349420393  4.436569940476191 37.74899455878874  4.391183035714286 37.45990063875089  C 4.368489583333334 37.393186657203685  4.357142857142857 37.32091317719422  4.357142857142857 37.2430801987225  C 4.357142857142857 37.16524722025077  4.362816220238097 37.092973740241305  4.374162946428571 37.02625975869411  C 4.3855096726190474 36.959545777146914  4.408203125 36.89283179559972  4.442243303571429 36.826117814052516  L 4.52734375 36.65933286018453  C 4.52734375 36.65933286018453  4.567057291666667 36.5981783770996  4.646484375 36.47586941092974  C 4.725911458333334 36.35356044475987  4.771298363095238 36.29796546013722  4.782645089285714 36.30908445706175  C 4.793991815476191 36.32020345398628  4.845052083333334 36.264608469363615  4.935825892857143 36.142299503193755  C 5.026599702380953 36.019990537023894  5.071986607142857 35.9699550508635  5.071986607142857 35.99219304471256  C 5.1854538690476195 35.85876508161817  5.446428571428571 35.58079015850485  5.854910714285714 35.158268275372606  C 6.263392857142857 34.73574639224036  6.558407738095238 34.40773598296664  6.739955357142857 34.17423704755146  C 6.921502976190476 33.940738112136266  7.176804315476191 33.61828720132481  7.505859375 33.20688431511711  C 7.834914434523811 32.79548142890939  8.118582589285714 32.36740004731488  8.356863839285714 31.922640170333572  C 8.595145089285714 31.477880293352257  8.827752976190476 30.98864442867282  9.0546875 30.454932576295246  C 6.240699404761903 28.853797019162528  4.0280877976190474 26.885734563520224  2.4168526785714284 24.550745209368344  C 0.8056175595238094 22.215755855216464  0 19.725100544121123  0 17.078779276082326  C 0 13.987698131062217  1.0665922619047619 11.130115921457293  3.1997767857142856 8.506032647267565  C 5.33296130952381 5.881949373077829  8.243396577380953 3.8082564466524667  11.931082589285714 2.284953867991485  Z M 58.58314732142857 33.10681334279631  C 56.97191220238096 35.430683700023664  54.7593005952381 37.393186657203685  51.9453125 38.99432221433641  C 52.17224702380952 39.52803406671398  52.404854910714285 40.01726993139343  52.643136160714285 40.46202980837473  C 52.8814174107143 40.906789685356046  53.1650855654762 41.33487106695056  53.494140625 41.74627395315827  C 53.82319568452381 42.157676839365976  54.078497023809526 42.48012775017743  54.260044642857146 42.713626685592615  C 54.44159226190477 42.94712562100781  54.73660714285715 43.27513603028152  55.145089285714285 43.69765791341377  C 55.55357142857144 44.12017979654601  55.81454613095239 44.39815471965933  55.928013392857146 44.53158268275373  C 55.9507068452381 44.5538206766028  55.99609375000001 44.60385616276319  56.064174107142854 44.68168914123492  C 56.13225446428572 44.759522119706645  56.18331473214286 44.81511710432932  56.217354910714285 44.84847409510291  C 56.25139508928572 44.881831085876506  56.29678199404763 44.93742607049917  56.353515625 45.015259048970904  C 56.41024925595238 45.09309202744263  56.44996279761905 45.154246510527564  56.47265625 45.19872249822569  L 56.55775669642857 45.36550745209368  C 56.55775669642857 45.36550745209368  56.580450148809526 45.432221433640876  56.62583705357143 45.565649396735274  C 56.671223958333336 45.699077359829666  56.67689732142857 45.77135083983913  56.642857142857146 45.78246983676366  C 56.608816964285715 45.79358883368819  56.59747023809524 45.86586231369766  56.608816964285715 45.999290276792046  C 56.540736607142854 46.31062219067896  56.39322916666667 46.55524012301869  56.166294642857146 46.73314407381121  C 55.93936011904763 46.91104802460374  55.689732142857146 46.98888100307547  55.417410714285715 46.9666430092264  C 54.2827380952381 46.810977052282944  53.30691964285715 46.63307310149042  52.489955357142854 46.43293115684883  C 48.9951636904762 45.54341140288621  45.84077380952381 44.12017979654601  43.026785714285715 42.163236337828245  C 40.984375 42.5190442394133  38.9873511904762 42.696948190205816  37.035714285714285 42.696948190205816  C 30.88578869047619 42.696948190205816  25.530133928571427 41.22924059616749  20.96875 38.29382540809085  C 22.28497023809524 38.38277738348711  23.283482142857142 38.42725337118524  23.964285714285715 38.42725337118524  C 27.61793154761905 38.42725337118524  31.12406994047619 37.926898509581264  34.482700892857146 36.92618878637331  C 37.8413318452381 35.92547906316537  40.83686755952381 34.49112845990064  43.469308035714285 32.62313697657913  C 46.305989583333336 30.577241542465103  48.48456101190477 28.22001419446416  50.00502232142857 25.5514549325763  C 51.52548363095237 22.88289567068843  52.285714285714285 20.058670451857104  52.285714285714285 17.078779276082326  C 52.285714285714285 15.36645374970428  52.02473958333333 13.6763662171753  51.50279017857143 12.008516678495385  C 54.430245535714285 13.587414241779037  56.74497767857143 15.56659569434587  58.446986607142854 17.946061036195882  C 60.148995535714285 20.325526378045893  61 22.88289567068843  61 25.61816891412349  C 61 28.28672817601135  60.1943824404762 30.782942985568955  58.58314732142857 33.10681334279631  Z " fill-rule="nonzero" fill="#5800aa" stroke="none" transform="matrix(1 0 0 1 803 214 )" />
  </g>
</svg>