<?xml version="1.0" encoding="utf-8"?>
<svg version="1.1" xmlns:xlink="http://www.w3.org/1999/xlink" width="28px" height="26px" xmlns="http://www.w3.org/2000/svg">
  <g transform="matrix(1 0 0 1 -1102 -300 )">
    <path d="M 27.057692307692307 9.321991178323882  C 27.685897435897438 9.420289855072465  28 9.671497584541063  28 10.07561436672968  C 28 10.315900021003989  27.854166666666668 10.578029825666874  27.5625 10.862003780718336  L 21.454326923076923 16.66162570888469  L 22.901442307692307 24.853182104599874  C 22.91266025641026 24.929636630959884  22.918269230769234 25.038857382902748  22.918269230769234 25.18084436042848  C 22.918269230769234 25.410207939508506  22.859375 25.6040747742071  22.74158653846154 25.76244486452426  C 22.623798076923077 25.920814954841422  22.45272435897436 26  22.228365384615383 26  C 22.01522435897436 26  21.790865384615383 25.934467548834277  21.55528846153846 25.803402646502835  L 14 21.936988027725267  L 6.444711538461538 25.803402646502835  C 6.197916666666667 25.934467548834277  5.973557692307692 26  5.771634615384615 26  C 5.536057692307692 26  5.359375 25.920814954841422  5.241586538461538 25.76244486452426  C 5.123798076923077 25.6040747742071  5.064903846153846 25.410207939508506  5.064903846153846 25.18084436042848  C 5.064903846153846 25.11531190926276  5.076121794871796 25.00609115731989  5.098557692307692 24.853182104599874  L 6.545673076923077 16.66162570888469  L 0.4206730769230769 10.862003780718336  C 0.14022435897435898 10.567107750472589  0 10.304977945809705  0 10.07561436672968  C 0 9.671497584541063  0.31410256410256404 9.420289855072465  0.9423076923076923 9.321991178323882  L 9.389423076923077 8.126023944549463  L 13.17548076923077 0.671707624448644  C 13.388621794871796 0.22390254148288036  13.663461538461538 0  14 0  C 14.33653846153846 0  14.611378205128204 0.22390254148288036  14.824519230769232 0.671707624448644  L 18.610576923076923 8.126023944549463  L 27.057692307692307 9.321991178323882  Z " fill-rule="nonzero" fill="#5800aa" stroke="none" transform="matrix(1 0 0 1 1102 300 )" />
  </g>
</svg>