<?xml version="1.0" encoding="utf-8"?>
<svg version="1.1" xmlns:xlink="http://www.w3.org/1999/xlink" width="28px" height="26px" xmlns="http://www.w3.org/2000/svg">
  <g transform="matrix(1 0 0 1 -1246 -301 )">
    <path d="M 19.13221153846154 15.924385633270322  L 19.956730769230766 15.154379332073093  L 24.28125 11.0586011342155  L 18.290865384615383 10.206679269061121  L 17.18028846153846 10.042848141146818  L 16.675480769230766 9.059861373660995  L 14 3.7844990548204143  L 14 19.56143667296786  L 14.99278846153846 20.069313169502205  L 20.34375 22.82167611846251  L 19.334134615384617 17.005671077504726  L 19.13221153846154 15.924385633270322  Z M 27.966346153846153 9.88720856962823  C 28.067307692307693 10.187565637471119  27.93269230769231 10.512497374501153  27.5625 10.862003780718336  L 21.454326923076923 16.66162570888469  L 22.901442307692307 24.853182104599874  C 22.95753205128205 25.21361058601134  22.923878205128208 25.49485402226423  22.800480769230766 25.696912413358536  C 22.677083333333336 25.898970804452844  22.486378205128208 26  22.228365384615383 26  C 22.03766025641026 26  21.813301282051285 25.934467548834277  21.55528846153846 25.803402646502835  L 14 21.936988027725267  L 6.444711538461538 25.803402646502835  C 6.186698717948719 25.934467548834277  5.9623397435897445 26  5.771634615384615 26  C 5.513621794871796 26  5.322916666666667 25.898970804452844  5.199519230769231 25.696912413358536  C 5.076121794871796 25.49485402226423  5.042467948717949 25.21361058601134  5.098557692307692 24.853182104599874  L 6.545673076923077 16.66162570888469  L 0.4206730769230769 10.862003780718336  C 0.061698717948717924 10.512497374501153  -0.06730769230769232 10.187565637471119  0.03365384615384616 9.88720856962823  C 0.13461538461538464 9.586851501785338  0.4375 9.39844570468389  0.9423076923076923 9.321991178323882  L 9.389423076923077 8.126023944549463  L 13.17548076923077 0.671707624448644  C 13.399839743589745 0.22390254148288036  13.674679487179489 0  14 0  C 14.314102564102566 0  14.588942307692308 0.22390254148288036  14.824519230769232 0.671707624448644  L 18.610576923076923 8.126023944549463  L 27.057692307692307 9.321991178323882  C 27.562500000000004 9.39844570468389  27.86538461538462 9.586851501785338  27.966346153846153 9.88720856962823  Z " fill-rule="nonzero" fill="#5800aa" stroke="none" transform="matrix(1 0 0 1 1246 301 )" />
  </g>
</svg>