<?xml version="1.0" encoding="utf-8"?>
<svg version="1.1" xmlns:xlink="http://www.w3.org/1999/xlink" width="20px" height="20px" xmlns="http://www.w3.org/2000/svg">
  <g transform="matrix(1 0 0 1 -799 -268 )">
    <path d="M 16.380208333333332 15.182291666666668  C 16.571180555555557 14.722222222222218  16.666666666666668 14.283854166666664  16.666666666666668 13.8671875  C 16.666666666666668 13.77170138888889  16.657986111111114 13.702256944444443  16.640625 13.658854166666664  C 16.62326388888889 13.61545138888889  16.54513888888889 13.543836805555554  16.40625 13.444010416666664  C 16.267361111111114 13.344184027777777  16.091579861111114 13.235677083333336  15.87890625 13.118489583333336  C 15.666232638888891 13.001302083333336  15.460069444444446 12.886284722222218  15.260416666666668 12.7734375  C 15.060763888888891 12.660590277777777  14.86328125 12.552083333333336  14.66796875 12.447916666666664  C 14.47265625 12.34375  14.348958333333332 12.278645833333336  14.296875 12.252604166666664  C 14.253472222222223 12.2265625  14.171006944444446 12.17013888888889  14.049479166666668 12.083333333333336  C 13.927951388888891 11.996527777777777  13.819444444444446 11.93142361111111  13.723958333333332 11.888020833333336  C 13.628472222222223 11.844618055555554  13.537326388888891 11.822916666666664  13.450520833333332 11.822916666666664  C 13.3203125 11.822916666666664  13.16189236111111 11.91189236111111  12.975260416666668 12.08984375  C 12.788628472222223 12.26779513888889  12.617187500000002 12.46310763888889  12.4609375 12.67578125  C 12.304687500000002 12.88845486111111  12.137586805555555 13.08376736111111  11.959635416666668 13.26171875  C 11.781684027777779 13.43967013888889  11.636284722222223 13.528645833333336  11.5234375 13.528645833333336  C 11.46267361111111 13.528645833333336  11.391059027777779 13.51345486111111  11.30859375 13.483072916666664  C 11.226128472222223 13.452690972222218  11.158854166666668 13.424479166666664  11.106770833333332 13.3984375  C 11.0546875 13.372395833333336  10.980902777777779 13.331163194444443  10.885416666666668 13.274739583333336  C 10.789930555555555 13.218315972222218  10.729166666666668 13.18142361111111  10.703125 13.1640625  C 9.84375 12.686631944444443  9.105902777777779 12.137586805555554  8.489583333333334 11.516927083333336  C 7.873263888888889 10.89626736111111  7.322048611111112 10.15625  6.8359375 9.296875  C 6.818576388888889 9.270833333333332  6.781684027777778 9.210069444444445  6.725260416666666 9.114583333333332  C 6.668836805555557 9.019097222222221  6.627604166666668 8.9453125  6.6015625 8.893229166666668  C 6.575520833333334 8.841145833333332  6.547309027777778 8.773871527777777  6.516927083333334 8.69140625  C 6.486545138888889 8.608940972222221  6.471354166666666 8.53732638888889  6.471354166666666 8.4765625  C 6.471354166666666 8.363715277777777  6.560329861111112 8.218315972222221  6.73828125 8.040364583333332  C 6.916232638888889 7.862413194444445  7.111545138888889 7.6953125  7.32421875 7.5390625  C 7.536892361111112 7.3828125  7.732204861111112 7.211371527777777  7.91015625 7.024739583333332  C 8.08810763888889 6.838107638888888  8.177083333333334 6.6796875  8.177083333333334 6.549479166666668  C 8.177083333333334 6.462673611111109  8.155381944444445 6.371527777777777  8.111979166666666 6.276041666666668  C 8.06857638888889 6.180555555555554  8.003472222222223 6.072048611111109  7.916666666666666 5.950520833333332  C 7.829861111111112 5.828993055555554  7.7734375 5.746527777777777  7.747395833333334 5.703125  C 7.721354166666666 5.651041666666668  7.65625 5.52734375  7.552083333333334 5.33203125  C 7.447916666666666 5.13671875  7.339409722222223 4.939236111111109  7.2265625 4.739583333333332  C 7.113715277777778 4.539930555555554  6.998697916666666 4.333767361111109  6.881510416666666 4.12109375  C 6.764322916666666 3.908420138888886  6.655815972222222 3.732638888888886  6.555989583333334 3.59375  C 6.4561631944444455 3.4548611111111094  6.384548611111112 3.3767361111111094  6.341145833333334 3.359375  C 6.297743055555555 3.342013888888886  6.228298611111112 3.3333333333333326  6.1328125 3.3333333333333326  C 5.716145833333334 3.3333333333333326  5.277777777777778 3.428819444444444  4.817708333333333 3.6197916666666674  C 4.418402777777779 3.8020833333333326  4.071180555555555 4.212239583333332  3.776041666666667 4.850260416666668  C 3.4809027777777786 5.48828125  3.333333333333333 6.0546875  3.333333333333333 6.549479166666668  C 3.333333333333333 6.688368055555555  3.3441840277777786 6.8359375  3.365885416666667 6.9921875  C 3.387586805555556 7.1484375  3.4092881944444446 7.280815972222221  3.430989583333333 7.389322916666668  C 3.4526909722222228 7.497829861111109  3.4917534722222228 7.641059027777777  3.548177083333333 7.819010416666668  C 3.6046006944444446 7.996961805555555  3.6480034722222228 8.125  3.678385416666667 8.203125  C 3.7087673611111116 8.28125  3.763020833333333 8.424479166666668  3.841145833333333 8.6328125  C 3.919270833333333 8.841145833333332  3.967013888888889 8.971354166666668  3.984375 9.0234375  C 4.505208333333333 10.44704861111111  5.444878472222222 11.83810763888889  6.803385416666666 13.196614583333336  C 8.16189236111111 14.555121527777777  9.55295138888889 15.494791666666668  10.9765625 16.015625  C 11.028645833333336 16.03298611111111  11.158854166666668 16.080729166666668  11.3671875 16.158854166666668  C 11.575520833333336 16.236979166666668  11.718750000000002 16.29123263888889  11.796875 16.321614583333332  C 11.875000000000002 16.35199652777778  12.003038194444446 16.395399305555557  12.180989583333332 16.451822916666668  C 12.358940972222223 16.50824652777778  12.502170138888891 16.54730902777778  12.610677083333332 16.569010416666668  C 12.719184027777779 16.590711805555557  12.851562500000002 16.612413194444443  13.0078125 16.634114583333332  C 13.164062500000002 16.65581597222222  13.311631944444446 16.666666666666668  13.450520833333332 16.666666666666668  C 13.9453125 16.666666666666668  14.51171875 16.51909722222222  15.149739583333332 16.223958333333332  C 15.787760416666668 15.928819444444445  16.197916666666668 15.581597222222223  16.380208333333332 15.182291666666668  Z M 18.899739583333332 1.1002604166666674  C 19.63324652777778 1.8337673611111094  20 2.717013888888886  20 3.75  L 20 16.25  C 20 17.28298611111111  19.63324652777778 18.16623263888889  18.899739583333332 18.899739583333332  C 18.16623263888889 19.63324652777778  17.282986111111114 20  16.25 20  L 3.75 20  C 2.717013888888889 20  1.8337673611111114 19.63324652777778  1.1002604166666667 18.899739583333332  C 0.36675347222222215 18.16623263888889  0 17.28298611111111  0 16.25  L 0 3.75  C 0 2.717013888888886  0.36675347222222215 1.8337673611111094  1.1002604166666667 1.1002604166666674  C 1.8337673611111114 0.366753472222221  2.717013888888889 0  3.75 0  L 16.25 0  C 17.282986111111114 0  18.16623263888889 0.366753472222221  18.899739583333332 1.1002604166666674  Z " fill-rule="nonzero" fill="#5800aa" stroke="none" transform="matrix(1 0 0 1 799 268 )" />
  </g>
</svg>