<?xml version="1.0" encoding="utf-8"?>
<svg version="1.1" xmlns:xlink="http://www.w3.org/1999/xlink" width="20px" height="20px" xmlns="http://www.w3.org/2000/svg">
  <g transform="matrix(1 0 0 1 -799 -299 )">
    <path d="M 14.160714285714288 5.78125  C 13.044642857142845 4.665178571428578  11.571428571428577 4.053571428571422  10 4.053571428571422  C 6.754464285714289 4.053571428571422  4.116071428571423 6.691964285714289  4.1116071428571335 9.9375  C 4.1116071428571335 11.049107142857133  4.4241071428571335 12.133928571428578  5.0133928571428665 13.066964285714288  L 5.151785714285712 13.290178571428577  L 4.558035714285711 15.459821428571423  L 6.785714285714289 14.875  L 7 15.00446428571429  C 7.901785714285711 15.540178571428578  8.9375 15.825892857142867  9.995535714285712 15.825892857142867  L 10 15.825892857142867  C 13.241071428571423 15.825892857142867  15.950892857142867 13.1875  15.950892857142867 9.941964285714288  C 15.950892857142867 8.37053571428571  15.272321428571423 6.892857142857133  14.160714285714288 5.78125  Z M 13.566964285714288 11.611607142857132  C 13.607142857142867 11.696428571428578  13.607142857142867 12.053571428571422  13.459821428571422 12.46428571428571  C 13.3125 12.879464285714288  12.607142857142868 13.254464285714288  12.267857142857132 13.303571428571422  C 11.705357142857133 13.388392857142843  11.267857142857133 13.34375  10.147321428571423 12.861607142857157  C 8.375 12.09375  7.214285714285711 10.30803571428571  7.125 10.19196428571429  C 7.035714285714288 10.075892857142868  6.401785714285712 9.232142857142867  6.401785714285712 8.361607142857132  C 6.401785714285712 7.491071428571422  6.857142857142867 7.0625  7.022321428571422 6.883928571428578  C 7.183035714285712 6.7053571428571335  7.375 6.660714285714288  7.495535714285712 6.660714285714288  C 7.611607142857157 6.660714285714288  7.732142857142867 6.660714285714288  7.834821428571423 6.665178571428578  C 7.941964285714289 6.6696428571428665  8.089285714285712 6.625  8.232142857142867 6.96875  C 8.379464285714288 7.321428571428577  8.732142857142867 8.19196428571429  8.776785714285712 8.28125  C 8.821428571428578 8.37053571428571  8.852678571428578 8.473214285714288  8.790178571428577 8.589285714285712  C 8.450892857142867 9.267857142857155  8.089285714285712 9.241071428571422  8.272321428571422 9.553571428571422  C 8.955357142857155 10.727678571428578  9.638392857142867 11.133928571428577  10.678571428571422 11.65625  C 10.857142857142868 11.745535714285712  10.959821428571422 11.732142857142867  11.0625 11.611607142857132  C 11.165178571428578 11.495535714285712  11.504464285714288 11.09375  11.620535714285712 10.919642857142867  C 11.736607142857157 10.741071428571423  11.857142857142867 10.772321428571423  12.017857142857157 10.830357142857132  C 12.178571428571423 10.888392857142868  13.049107142857155 11.316964285714288  13.227678571428578 11.40625  C 13.40625 11.495535714285712  13.522321428571422 11.540178571428578  13.566964285714288 11.611607142857132  Z M 20 2.142857142857133  C 20 0.9598214285714222  19.04017857142858 0  17.85714285714287 0  L 2.142857142857133 0  C 0.9598214285714222 0  0 0.9598214285714222  0 2.142857142857133  L 0 17.85714285714287  C 0 19.04017857142858  0.9598214285714222 20  2.142857142857133 20  L 17.85714285714287 20  C 19.04017857142858 20  20 19.04017857142858  20 17.85714285714287  L 20 2.142857142857133  Z M 17.14285714285713 9.941964285714288  C 17.14285714285713 13.84375  13.897321428571423 17.01785714285713  9.995535714285712 17.01785714285713  C 8.808035714285712 17.01785714285713  7.6428571428571335 16.71875  6.611607142857156 16.15625  L 2.857142857142867 17.14285714285713  L 3.861607142857133 13.47321428571429  C 3.241071428571422 12.401785714285712  2.915178571428578 11.183035714285712  2.915178571428578 9.93303571428571  C 2.9196428571428665 6.03125  6.09375 2.857142857142867  9.995535714285712 2.857142857142867  C 11.888392857142867 2.857142857142867  13.665178571428578 3.59375  15.00446428571429 4.933035714285711  C 16.33928571428571 6.272321428571423  17.14285714285713 8.049107142857132  17.14285714285713 9.941964285714288  Z " fill-rule="nonzero" fill="#5800aa" stroke="none" transform="matrix(1 0 0 1 799 299 )" />
  </g>
</svg>