<?xml version="1.0" encoding="utf-8"?>
<svg version="1.1" xmlns:xlink="http://www.w3.org/1999/xlink" width="31px" height="46px" xmlns="http://www.w3.org/2000/svg">
  <g transform="matrix(1 0 0 1 -251 -214 )">
    <path d="M 20.9794921875 20.75390625  C 22.4931640625 19.256510416666664  23.25 17.44965277777778  23.25 15.333333333333336  C 23.25 13.217013888888886  22.4931640625 11.41015625  20.9794921875 9.912760416666664  C 19.4658203125 8.415364583333336  17.639322916666668 7.666666666666665  15.5 7.666666666666665  C 13.360677083333334 7.666666666666665  11.5341796875 8.415364583333336  10.0205078125 9.912760416666664  C 8.5068359375 11.41015625  7.75 13.217013888888886  7.75 15.333333333333336  C 7.75 17.44965277777778  8.5068359375 19.256510416666664  10.0205078125 20.75390625  C 11.5341796875 22.251302083333336  13.360677083333334 23  15.5 23  C 17.639322916666668 23  19.4658203125 22.251302083333336  20.9794921875 20.75390625  Z M 26.458984375 4.4921875  C 29.486328125 7.486979166666665  31 11.100694444444438  31 15.333333333333336  C 31 17.509548611111107  30.6669921875 19.29644097222222  30.0009765625 20.694010416666664  L 18.9814453125 43.873697916666664  C 18.658528645833336 44.532552083333336  18.17919921875 45.05164930555555  17.54345703125 45.430989583333336  C 16.90771484375 45.810329861111114  16.2265625 46  15.5 46  C 14.7734375 46  14.09228515625 45.810329861111114  13.45654296875 45.430989583333336  C 12.82080078125 45.05164930555555  12.3515625 44.532552083333336  12.048828125 43.873697916666664  L 0.9990234375 20.694010416666664  C 0.3330078125 19.29644097222222  0 17.509548611111107  0 15.333333333333336  C 0 11.100694444444438  1.513671875 7.486979166666665  4.541015625 4.4921875  C 7.568359375000001 1.497395833333335  11.221354166666668 0  15.5 0  C 19.778645833333336 0  23.431640625 1.497395833333335  26.458984375 4.4921875  Z " fill-rule="nonzero" fill="#5800aa" stroke="none" transform="matrix(1 0 0 1 251 214 )" />
  </g>
</svg>