<?xml version="1.0" encoding="utf-8"?>
<svg version="1.1" xmlns:xlink="http://www.w3.org/1999/xlink" width="20px" height="20px" xmlns="http://www.w3.org/2000/svg">
  <g transform="matrix(1 0 0 1 -799 -331 )">
    <path d="M 3.75 0  L 16.25 0  C 17.282986111111114 0  18.16623263888889 0.366753472222221  18.899739583333332 1.1002604166666674  C 19.63324652777778 1.8337673611111094  20 2.717013888888886  20 3.75  L 20 16.25  C 20 17.28298611111111  19.63324652777778 18.16623263888889  18.899739583333332 18.899739583333332  C 18.16623263888889 19.63324652777778  17.282986111111114 20  16.25 20  L 3.75 20  C 2.717013888888889 20  1.8337673611111114 19.63324652777778  1.1002604166666667 18.899739583333332  C 0.36675347222222215 18.16623263888889  0 17.28298611111111  0 16.25  L 0 3.75  C 0 2.717013888888886  0.36675347222222215 1.8337673611111094  1.1002604166666667 1.1002604166666674  C 1.8337673611111114 0.366753472222221  2.717013888888889 0  3.75 0  Z M 16.302083333333332 14.635416666666664  C 16.54513888888889 14.39236111111111  16.666666666666668 14.097222222222218  16.666666666666668 13.75  L 16.666666666666668 8.072916666666668  C 16.397569444444446 8.376736111111109  16.119791666666668 8.61545138888889  15.833333333333332 8.7890625  C 15.538194444444446 8.980034722222221  14.963107638888891 9.348958333333332  14.108072916666668 9.895833333333332  C 13.253038194444445 10.442708333333336  12.59548611111111 10.872395833333336  12.135416666666668 11.184895833333336  C 11.284722222222223 11.783854166666664  10.572916666666668 12.083333333333336  10 12.083333333333336  C 9.427083333333334 12.083333333333336  8.715277777777779 11.783854166666664  7.864583333333334 11.184895833333336  C 7.456597222222223 10.907118055555554  6.840277777777778 10.50564236111111  6.015625 9.98046875  C 5.190972222222222 9.45529513888889  4.574652777777779 9.053819444444445  4.166666666666667 8.776041666666668  C 4.0625 8.706597222222221  3.919270833333333 8.589409722222221  3.736979166666667 8.424479166666668  C 3.5546875 8.259548611111109  3.420138888888889 8.142361111111109  3.333333333333333 8.072916666666668  L 3.333333333333333 13.75  C 3.333333333333333 14.097222222222218  3.4548611111111116 14.39236111111111  3.697916666666667 14.635416666666664  C 3.9409722222222228 14.878472222222218  4.236111111111112 15  4.583333333333333 15  L 15.416666666666668 15  C 15.763888888888891 15  16.05902777777778 14.878472222222218  16.302083333333332 14.635416666666664  Z M 16.256510416666668 7.24609375  C 16.529947916666668 6.903211805555554  16.666666666666668 6.584201388888886  16.666666666666668 6.2890625  C 16.666666666666668 5.933159722222221  16.54730902777778 5.629340277777777  16.30859375 5.377604166666668  C 16.06987847222222 5.125868055555554  15.772569444444446 5  15.416666666666668 5  L 4.583333333333333 5  C 4.236111111111112 5  3.9409722222222228 5.121527777777777  3.697916666666667 5.364583333333332  C 3.4548611111111116 5.607638888888886  3.333333333333333 5.902777777777777  3.333333333333333 6.25  C 3.333333333333333 6.571180555555554  3.465711805555556 6.903211805555554  3.73046875 7.24609375  C 3.9952256944444446 7.588975694444445  4.288194444444445 7.868923611111109  4.609375 8.0859375  C 5.017361111111112 8.363715277777777  5.614149305555555 8.75  6.399739583333334 9.244791666666668  C 7.185329861111112 9.739583333333332  7.747395833333334 10.09982638888889  8.0859375 10.325520833333336  C 8.111979166666666 10.342881944444443  8.18576388888889 10.39279513888889  8.307291666666666 10.475260416666664  C 8.428819444444445 10.557725694444443  8.519965277777779 10.618489583333336  8.580729166666666 10.657552083333336  C 8.641493055555557 10.696614583333336  8.73263888888889 10.753038194444443  8.854166666666666 10.826822916666664  C 8.975694444444445 10.90060763888889  9.077690972222223 10.95703125  9.16015625 10.99609375  C 9.242621527777779 11.03515625  9.3359375 11.07638888888889  9.440104166666666 11.119791666666664  C 9.544270833333334 11.163194444444443  9.641927083333334 11.195746527777777  9.733072916666666 11.217447916666664  C 9.82421875 11.239149305555554  9.913194444444445 11.25  10 11.25  C 10.086805555555555 11.25  10.17578125 11.239149305555554  10.266927083333332 11.217447916666664  C 10.358072916666668 11.195746527777777  10.455729166666668 11.163194444444443  10.559895833333332 11.119791666666664  C 10.6640625 11.07638888888889  10.757378472222223 11.03515625  10.83984375 10.99609375  C 10.922309027777779 10.95703125  11.024305555555555 10.90060763888889  11.145833333333332 10.826822916666664  C 11.267361111111114 10.753038194444443  11.358506944444446 10.696614583333336  11.419270833333332 10.657552083333336  C 11.480034722222223 10.618489583333336  11.571180555555555 10.557725694444443  11.692708333333332 10.475260416666664  C 11.814236111111114 10.39279513888889  11.888020833333336 10.342881944444443  11.9140625 10.325520833333336  L 15.390625 8.059895833333332  C 15.694444444444446 7.860243055555555  15.983072916666668 7.588975694444445  16.256510416666668 7.24609375  Z " fill-rule="nonzero" fill="#5800aa" stroke="none" transform="matrix(1 0 0 1 799 331 )" />
  </g>
</svg>