<?xml version="1.0" encoding="utf-8"?>
<svg version="1.1" xmlns:xlink="http://www.w3.org/1999/xlink" width="25px" height="20px" xmlns="http://www.w3.org/2000/svg">
  <g transform="matrix(1 0 0 1 -483 -274 )">
    <path d="M 25 18.125  C 25 17.779687499999994  24.720312500000006 17.5  24.375 17.5  L 21 17.5  L 21 4.431640625  C 21.25 3.3667968750000057  20.408984375000003 2.5  19.375 2.5  L 15 2.5  L 15 5  L 18.75 5  L 18.75 20  L 24.375 20  C 24.720312500000006 20  25 19.720312500000006  25 19.375  L 25 18.125  Z M 13.750000000000002 1.2960937499999972  C 13.750000000000002 0.453125  12.9859375 -0.16523437499999716  12.196874999999999 0.039453124999994316  L 4.696874999999999 1.982421875  C 4.140234374999999 2.1265625000000057  3.75 2.64453125  4 3.239062500000003  L 4 17.5  L 0.625 17.5  C 0.2796875000000014 17.5  0 17.779687499999994  0 18.125  L 0 19.375  C 0 19.720312500000006  0.2796875000000014 20  0.625 20  L 13.750000000000002 20  L 13.750000000000002 1.2960937499999972  Z M 11.25 10  C 11.25 10.690234375000003  10.830078125 11.25  10.3125 11.25  C 9.794921875 11.25  9.375 10.690234375000003  9.375 10  C 9.375 9.309765624999997  9.794921875 8.75  10.3125 8.75  C 10.830078125 8.75  11.25 9.309765624999997  11.25 10  Z " fill-rule="nonzero" fill="#5800aa" stroke="none" transform="matrix(1 0 0 1 483 274 )" />
  </g>
</svg>