<?xml version="1.0" encoding="utf-8"?>
<svg version="1.1" xmlns:xlink="http://www.w3.org/1999/xlink" width="24px" height="24px" xmlns="http://www.w3.org/2000/svg">
  <g transform="matrix(1 0 0 1 -784 -27 )">
    <path d="M 3.486964247787597 15.376458053097394  C 2.231265345132755 12.212988318584053  2.8491856991150257 8.727211327433565  4.9026586194690225 6.217960353982448  L 2.90779081911505 4.194358621592869  C 0.06436851823006862 7.495960037522082  -0.8206346676106051 12.180008179114907  0.8609278810619543 16.419153665840668  C 2.701440730619453 21.060265170265552  7.144930712920356 23.979956497699163  11.969087881061952 23.979956497699163  C 12.783415102300893 23.979956497699163  13.608787208495556 23.896094465840633  14.434159314690262 23.72506541097357  L 13.857057013805303 20.959861233982224  C 9.49305630584071 21.869101021592996  5.131032943008847 19.52210534017695  3.4870117040708095 15.376403534867336  Z M 23.137820176991156 7.579503716814202  C 20.986129699115025 2.157340884955829  15.278155752212385 -0.9146060176991568  9.566735575221244 0.2749083185839254  L 10.142736212389366 3.040112495575272  C 14.506736920354001 2.1308727079644996  18.86876028318582 4.477868389380546  20.512781522123902 8.621310371681375  C 21.769582088495582 11.787039929203502  21.150560070796473 15.276206654867337  19.094883823008843 17.78517515044257  L 21.10190608141592 19.793293423008777  C 23.937701479646037 16.49395183008835  24.819314930973448 11.815553246017657  23.13772413451329 7.57951501592936  Z " fill-rule="nonzero" fill="#74bc68" stroke="none" fill-opacity="0.6039215686274509" transform="matrix(1 0 0 1 784 27 )" />
  </g>
</svg>