<?xml version="1.0" encoding="utf-8"?>
<svg version="1.1" xmlns:xlink="http://www.w3.org/1999/xlink" width="83px" height="83px" xmlns="http://www.w3.org/2000/svg">
  <g transform="matrix(1 0 0 1 -753 -381 )">
    <path d="M 83 38.5357142857143  C 83 35.26203125  80.34511160714285 32.6071428571429  77.0714285714286 33  L 50 33  L 50 5.928571428571402  C 50.392857142857146 2.6548883928571025  47.73796875 0  44.4642857142857 0  L 38.5357142857143 0  C 35.26203125 0  32.607142857142854 2.6548883928571025  33 5.928571428571402  L 33 33  L 5.928571428571449 33  C 2.6548883928571496 32.6071428571429  0 35.26203125  0 38.5357142857143  L 0 44.4642857142857  C 0 47.73796875  2.6548883928571496 50.3928571428571  5.928571428571449 50  L 33 50  L 33 77.0714285714286  C 32.607142857142854 80.3451116071429  35.26203125 83  38.5357142857143 83  L 44.4642857142857 83  C 47.73796875 83  50.392857142857146 80.3451116071429  50 77.0714285714286  L 50 50  L 77.0714285714286 50  C 80.34511160714285 50.3928571428571  83 47.73796875  83 44.4642857142857  L 83 38.5357142857143  Z " fill-rule="nonzero" fill="#4f2c87" stroke="none" transform="matrix(1 0 0 1 753 381 )" />
  </g>
</svg>