<?xml version="1.0" encoding="utf-8"?>
<svg version="1.1" xmlns:xlink="http://www.w3.org/1999/xlink" width="29px" height="30px" xmlns="http://www.w3.org/2000/svg">
  <g transform="matrix(1 0 0 1 -7 -160 )">
    <path d="M 18.125 18.37713068181818  L 18.125 17  L 29 17  L 29 26.633522727272727  C 29 28.398659446022727  27.782792968749998 29.829545454545453  26.28125 29.829545454545453  L 2.71875 29.829545454545453  C 1.2172070312499998 29.829545454545453  0 28.398659446022727  0 26.633522727272727  L 0 17  L 10.875 17  L 10.875 18.37713068181818  C 10.875 18.81838156960228  11.179330078124993 19.176136363636363  11.5546875 19.176136363636363  L 17.4453125 19.176136363636363  C 17.820669921875005 19.176136363636363  18.125 18.81838156960228  18.125 18.37713068181818  Z M 26.28125 6.392045454545455  C 27.782792968749998 6.392045454545455  29 7.822931463068182  29 9.588068181818182  L 29 15  L 0 15  L 0 9.588068181818182  C 0 7.822931463068182  1.2172070312499998 6.392045454545455  2.71875 6.392045454545455  L 7.25 6.392045454545455  L 7.25 3.1960227272727275  C 7.25 1.4308860085227273  8.46720703125 0  9.96875 0  L 19.03125 0  C 20.532792968749998 0  21.75 1.4308860085227273  21.75 3.1960227272727275  L 21.75 6.392045454545455  L 26.28125 6.392045454545455  Z M 18.125 6.392045454545455  L 18.125 4.261363636363637  L 10.875 4.261363636363637  L 10.875 6.392045454545455  L 18.125 6.392045454545455  Z " fill-rule="nonzero" fill="#f9f9f9" stroke="none" transform="matrix(1 0 0 1 7 160 )" />
  </g>
</svg>