<?xml version="1.0" encoding="utf-8"?>
<svg version="1.1" xmlns:xlink="http://www.w3.org/1999/xlink" width="29px" height="18px" xmlns="http://www.w3.org/2000/svg">
  <g transform="matrix(1 0 0 1 -7 -208 )">
    <path d="M 28.155787831513262 6.150671833324952  C 29.221232449297982 5.822756781238992  29.221232449297982 4.413265562880585  28.155787831513262 4.085350510794624  L 15.536037441497664 0.20381460419706296  C 14.848361934477383 -0.007699662825233088  14.10639625585023 -0.007699662825233088  13.419173166926681 0.20381460419706296  L 0.7989703588143487 4.085350510794624  C -0.2660218408736404 4.4128126415379185  -0.2660218408736404 5.822756781238992  0.7989703588143487 6.150218911982286  L 2.999079563182534 6.826883397916573  C 2.5163494539781635 7.424286648885296  2.219563182527308 8.153037089225515  2.1901560062402505 8.9510844949927  C 1.7544773790951718 9.201097076141096  1.4477379095163816 9.65220673343062  1.4477379095163816 10.190730209853545  C 1.4477379095163816 10.678979417241203  1.7047113884555312 11.089779075033961  2.074789391575657 11.352473453776856  L 0.919765990639624 16.55563383825676  C 0.8193291731669319 17.00810225957425  1.1631669266770628 17.43747169241608  1.6259906396255803 17.43747169241608  L 4.164508580343215 17.43747169241608  C 4.627784711388447 17.43747169241608  4.971622464898593 17.00810225957425  4.871185647425902 16.55563383825676  L 3.716162246489853 11.352473453776856  C 4.086240249609978 11.089779075033961  4.343213728549144 10.678979417241203  4.343213728549144 10.190730209853545  C 4.343213728549144 9.666700216395755  4.0504992199687955 9.22827235670073  3.634726989079569 8.9737305621257  C 3.669110764430578 8.293442705450147  4.016567862714501 7.691963162397458  4.570780031201253 7.310603391877598  L 13.418720748829951 10.03220773992248  C 13.828611544461783 10.158119873182011  14.614914196567865 10.31528357908511  15.535585023400934 10.03220773992248  L 28.155787831513262 6.150671833324952  Z M 22.52227769110764 9.399476624226258  L 15.960858034321378 11.41769412711992  C 14.670109204368167 11.814453223290215  13.570280811232458 11.595239293442685  12.993447737909522 11.41769412711992  L 6.432480499219973 9.399929545568925  L 5.790951638065526 14.538775099391064  C 5.790951638065526 16.139852045694735  9.679937597503896 17.43747169241608  14.477379095163815 17.43747169241608  C 19.27482059282372 17.43747169241608  23.163806552262088 16.139852045694735  23.163806552262088 14.538775099391064  L 22.52227769110764 9.399476624226258  Z " fill-rule="nonzero" fill="#f9f9f9" stroke="none" transform="matrix(1 0 0 1 7 208 )" />
  </g>
</svg>