<?xml version="1.0" encoding="utf-8"?>
<svg version="1.1" xmlns:xlink="http://www.w3.org/1999/xlink" width="307px" height="332px" xmlns="http://www.w3.org/2000/svg">
  <defs>
    <filter x="1008px" y="17px" width="307px" height="332px" filterUnits="userSpaceOnUse" id="filter79">
      <feOffset dx="2" dy="2" in="SourceAlpha" result="shadowOffsetInner" />
      <feGaussianBlur stdDeviation="2.5" in="shadowOffsetInner" result="shadowGaussian" />
      <feComposite in2="shadowGaussian" operator="atop" in="SourceAlpha" result="shadowComposite" />
      <feColorMatrix type="matrix" values="0 0 0 0 0  0 0 0 0 0  0 0 0 0 0  0 0 0 0.34901960784313724 0  " in="shadowComposite" />
    </filter>
    <g id="widget80">
      <path d="M 1011.5 30  A 9.5 9.5 0 0 1 1021 20.5 L 1298 20.5  A 9.5 9.5 0 0 1 1307.5 30 L 1307.5 332  A 9.5 9.5 0 0 1 1298 341.5 L 1021 341.5  A 9.5 9.5 0 0 1 1011.5 332 L 1011.5 30  Z " fill-rule="nonzero" fill="#ffffff" stroke="none" fill-opacity="0.9921568627450981" />
      <path d="M 1011.5 30  A 9.5 9.5 0 0 1 1021 20.5 L 1298 20.5  A 9.5 9.5 0 0 1 1307.5 30 L 1307.5 332  A 9.5 9.5 0 0 1 1298 341.5 L 1021 341.5  A 9.5 9.5 0 0 1 1011.5 332 L 1011.5 30  Z " stroke-width="1" stroke="#797979" fill="none" />
    </g>
  </defs>
  <g transform="matrix(1 0 0 1 -1008 -17 )">
    <use xlink:href="#widget80" filter="url(#filter79)" />
    <use xlink:href="#widget80" />
  </g>
</svg>