<?xml version="1.0" encoding="utf-8"?>
<svg version="1.1" xmlns:xlink="http://www.w3.org/1999/xlink" width="29px" height="22px" xmlns="http://www.w3.org/2000/svg">
  <g transform="matrix(1 0 0 1 -7 -556 )">
    <path d="M 13.97607421875 15.891276041666668  C 14.325358072916668 15.485460069444441  14.5 14.976996527777777  14.5 14.365885416666668  C 14.5 13.754774305555554  14.45751953125 13.193793402777777  14.37255859375 12.682942708333332  C 14.28759765625 12.172092013888886  14.148356119791668 11.680338541666668  13.954833984375 11.207682291666668  C 13.761311848958334 10.735026041666666  13.475748697916668 10.362630208333334  13.09814453125 10.090494791666666  C 12.720540364583336 9.818359375  12.262695312500002 9.682291666666666  11.724609375 9.682291666666666  C 11.667968750000002 9.72048611111111  11.526367187500002 9.80642361111111  11.2998046875 9.940104166666666  C 11.073242187500002 10.07378472222222  10.896240234375002 10.176432291666666  10.768798828125 10.248046875  C 10.641357421875 10.319661458333334  10.473795572916668 10.403211805555554  10.26611328125 10.498697916666666  C 10.058430989583334 10.594184027777777  9.85546875 10.663411458333334  9.6572265625 10.706380208333334  C 9.458984375 10.749348958333334  9.2607421875 10.770833333333334  9.0625 10.770833333333334  C 8.8642578125 10.770833333333334  8.666015625 10.749348958333334  8.4677734375 10.706380208333334  C 8.26953125 10.663411458333334  8.066569010416668 10.594184027777777  7.85888671875 10.498697916666666  C 7.651204427083334 10.403211805555554  7.483642578125 10.319661458333334  7.356201171875 10.248046875  C 7.228759765625 10.176432291666666  7.0517578125 10.07378472222222  6.8251953125 9.940104166666666  C 6.5986328125 9.80642361111111  6.45703125 9.72048611111111  6.400390625 9.682291666666666  C 5.8623046875 9.682291666666666  5.404459635416667 9.818359375  5.02685546875 10.090494791666666  C 4.649251302083334 10.362630208333334  4.363688151041667 10.735026041666666  4.170166015625 11.207682291666668  C 3.976643880208334 11.680338541666668  3.83740234375 12.172092013888886  3.75244140625 12.682942708333332  C 3.66748046875 13.193793402777777  3.625 13.754774305555554  3.625 14.365885416666668  C 3.625 14.976996527777777  3.799641927083334 15.485460069444441  4.14892578125 15.891276041666668  C 4.498209635416667 16.297092013888886  4.927734375 16.5  5.4375 16.5  L 12.6875 16.5  C 13.197265625 16.5  13.626790364583334 16.297092013888886  13.97607421875 15.891276041666668  Z M 11.335205078125 9.216796875  C 11.962972005208336 8.581814236111109  12.276855468750002 7.815538194444443  12.27685546875 6.91796875  C 12.276855468750002 6.0203993055555545  11.962972005208336 5.254123263888888  11.335205078125 4.619140625  C 10.707438151041668 3.984157986111109  9.949869791666668 3.666666666666666  9.0625 3.666666666666666  C 8.175130208333334 3.666666666666666  7.417561848958334 3.984157986111109  6.789794921875 4.619140625  C 6.162027994791667 5.254123263888888  5.84814453125 6.0203993055555545  5.84814453125 6.91796875  C 5.84814453125 7.815538194444443  6.162027994791667 8.581814236111109  6.789794921875 9.216796875  C 7.417561848958334 9.85177951388889  8.175130208333334 10.169270833333334  9.0625 10.169270833333334  C 9.949869791666668 10.169270833333334  10.707438151041668 9.85177951388889  11.335205078125 9.216796875  Z M 25.24755859375 14.537760416666668  C 25.33251953125 14.451822916666668  25.375 14.342013888888886  25.375 14.208333333333332  L 25.375 13.291666666666668  C 25.375 13.157986111111109  25.33251953125 13.048177083333332  25.24755859375 12.962239583333332  C 25.16259765625 12.876302083333332  25.054036458333336 12.833333333333332  24.921875 12.833333333333332  L 16.765625 12.833333333333332  C 16.633463541666668 12.833333333333332  16.52490234375 12.876302083333332  16.43994140625 12.962239583333332  C 16.35498046875 13.048177083333332  16.3125 13.157986111111109  16.3125 13.291666666666668  L 16.3125 14.208333333333332  C 16.3125 14.342013888888886  16.35498046875 14.451822916666668  16.43994140625 14.537760416666668  C 16.52490234375 14.623697916666668  16.633463541666668 14.666666666666668  16.765625 14.666666666666668  L 24.921875 14.666666666666668  C 25.054036458333336 14.666666666666668  25.16259765625 14.623697916666668  25.24755859375 14.537760416666668  Z M 25.226318359375 10.849609375  C 25.325439453125 10.749348958333334  25.375 10.627604166666666  25.375 10.484375  L 25.375 9.682291666666666  C 25.375 9.5390625  25.325439453125 9.417317708333334  25.226318359375 9.317057291666666  C 25.127197265625 9.216796875  25.0068359375 9.166666666666666  24.865234375 9.166666666666666  L 16.822265625 9.166666666666666  C 16.6806640625 9.166666666666666  16.560302734375 9.216796875  16.461181640625 9.317057291666666  C 16.362060546875 9.417317708333334  16.3125 9.5390625  16.3125 9.682291666666666  L 16.3125 10.484375  C 16.3125 10.627604166666666  16.362060546875 10.749348958333334  16.461181640625 10.849609375  C 16.560302734375 10.949869791666666  16.6806640625 11  16.822265625 11  L 24.865234375 11  C 25.0068359375 11  25.127197265625 10.949869791666666  25.226318359375 10.849609375  Z M 25.24755859375 7.204427083333334  C 25.33251953125 7.118489583333334  25.375 7.0086805555555545  25.375 6.875  L 25.375 5.958333333333334  C 25.375 5.824652777777775  25.33251953125 5.71484375  25.24755859375 5.62890625  C 25.16259765625 5.54296875  25.054036458333336 5.5  24.921875 5.5  L 16.765625 5.5  C 16.633463541666668 5.5  16.52490234375 5.54296875  16.43994140625 5.62890625  C 16.35498046875 5.71484375  16.3125 5.824652777777775  16.3125 5.958333333333334  L 16.3125 6.875  C 16.3125 7.0086805555555545  16.35498046875 7.118489583333334  16.43994140625 7.204427083333334  C 16.52490234375 7.290364583333334  16.633463541666668 7.333333333333334  16.765625 7.333333333333334  L 24.921875 7.333333333333334  C 25.054036458333336 7.333333333333334  25.16259765625 7.290364583333334  25.24755859375 7.204427083333334  Z M 28.33447265625 0.6731770833333341  C 28.778157552083336 1.1219618055555545  29 1.6614583333333341  29 2.291666666666666  L 29 19.708333333333336  C 29 20.338541666666664  28.778157552083336 20.878038194444446  28.33447265625 21.326822916666664  C 27.890787760416668 21.77560763888889  27.357421875 22  26.734375 22  L 21.75 22  L 21.75 20.625  C 21.75 20.491319444444446  21.70751953125 20.381510416666664  21.62255859375 20.295572916666664  C 21.53759765625 20.209635416666664  21.429036458333336 20.166666666666664  21.296875 20.166666666666664  L 20.390625 20.166666666666664  C 20.258463541666668 20.166666666666664  20.14990234375 20.209635416666664  20.06494140625 20.295572916666664  C 19.97998046875 20.381510416666664  19.9375 20.491319444444446  19.9375 20.625  L 19.9375 22  L 9.0625 22  L 9.0625 20.625  C 9.0625 20.491319444444446  9.02001953125 20.381510416666664  8.93505859375 20.295572916666664  C 8.85009765625 20.209635416666664  8.741536458333334 20.166666666666664  8.609375 20.166666666666664  L 7.703125 20.166666666666664  C 7.570963541666668 20.166666666666664  7.46240234375 20.209635416666664  7.37744140625 20.295572916666664  C 7.29248046875 20.381510416666664  7.25 20.491319444444446  7.25 20.625  L 7.25 22  L 2.265625 22  C 1.642578125 22  1.1092122395833335 21.77560763888889  0.66552734375 21.326822916666664  C 0.22184244791666666 20.878038194444446  0 20.338541666666664  0 19.708333333333336  L 0 2.291666666666666  C 0 1.6614583333333341  0.22184244791666666 1.1219618055555545  0.66552734375 0.6731770833333341  C 1.1092122395833335 0.22439236111110894  1.642578125 0  2.265625 0  L 26.734375 0  C 27.357421875 0  27.890787760416668 0.22439236111110894  28.33447265625 0.6731770833333341  Z " fill-rule="nonzero" fill="#f9f9f9" stroke="none" transform="matrix(1 0 0 1 7 556 )" />
  </g>
</svg>