<?xml version="1.0" encoding="utf-8"?>
<svg version="1.1" xmlns:xlink="http://www.w3.org/1999/xlink" width="29px" height="30px" xmlns="http://www.w3.org/2000/svg">
  <g transform="matrix(1 0 0 1 -6 -74 )">
    <path d="M 28.244791666666668 22.81893643465909  C 28.517880394345237 22.949440696022727  28.517880394345237 23.167835582386363  28.244791666666668 23.301003196022727  L 14.994931175595235 29.814231178977273  C 14.679127005773552 29.94805367463205  14.321547287381208 29.94805367463205  14.005743117559524 29.814231178977273  L 0.755208333333333 23.301003196022727  C 0.4854910714285711 23.167835582386363  0.4854910714285711 22.94944069602273  0.755208333333333 22.81560724431818  L 3.928431919642857 21.258877840909097  C 4.244706695955233 21.125065541416582  4.602693787675721 21.125065541416582  4.918968563988096 21.25887784090909  L 14.005743117559524 25.719992897727273  C 14.321399442057894 25.854523922393035  14.679274851096869 25.854523922393035  14.994931175595235 25.719992897727273  L 24.081705729166668 21.25887784090909  C 24.397737091997342 21.125021416239452  24.75553671752647 21.125021416239452  25.071568080357146 21.25887784090909  L 28.244791666666668 22.81893643465909  Z M 28.244791666666668 14.697043678977273  C 28.517880394345237 14.562544389204543  28.517880394345237 14.344149502840907  28.244791666666668 14.210316051136363  L 25.071568080357146 12.650257457386363  C 24.75553671752647 12.516401032716733  24.397737091997342 12.516401032716733  24.081705729166668 12.650257457386363  L 14.994931175595235 17.116699218750004  C 14.678997591283709 17.249898419327273  14.32167670187105 17.249898419327273  14.005743117559524 17.116699218750004  L 4.918968563988096 12.650257457386365  C 4.602693787675721 12.516445157893855  4.244706695955233 12.516445157893854  3.928431919642857 12.650257457386363  L 0.7552083333333328 14.210316051136363  C 0.4854910714285708 14.343483664772727  0.4854910714285708 14.562544389204545  0.7552083333333328 14.697043678977273  L 14.005743117559524 21.20893998579545  C 14.321547287381208 21.34276248145023  14.679127005773552 21.34276248145023  14.994931175595235 21.208939985795453  L 28.244791666666668 14.697043678977273  Z M 0.7552083333333346 6.189630681818182  C 0.48211960565476325 6.312810724431818  0.48211960565476325 6.514559659090909  0.755208333333333 6.638405539772726  L 14.005068824404761 12.650257457386362  C 14.32299732242155 12.773450278939501  14.676328384423682 12.773450278939501  14.994256882440476 12.650257457386362  L 28.244791666666668 6.638405539772725  C 28.51450892857143 6.514559659090906  28.51450892857143 6.312810724431816  28.244791666666668 6.18963068181818  L 14.994256882440476 0.17844460227272727  C 14.676585128641914 0.0539188748281402  14.322740578203325 0.0539188748281396  14.005068824404765 0.17844460227272727  L 0.7552083333333346 6.189630681818182  Z " fill-rule="nonzero" fill="#f9f9f9" stroke="none" transform="matrix(1 0 0 1 6 74 )" />
  </g>
</svg>