<?xml version="1.0" encoding="utf-8"?>
<svg version="1.1" xmlns:xlink="http://www.w3.org/1999/xlink" width="29px" height="27px" xmlns="http://www.w3.org/2000/svg">
  <g transform="matrix(1 0 0 1 -7 -403 )">
    <path d="M 27.388888888888893 14.023854166666666  C 28.32736111111111 13.680520833333333  29 12.755000000000004  29 11.666666666666673  C 29 10.578333333333335  28.32736111111111 9.652812499999998  27.388888888888893 9.309479166666666  L 27.388888888888893 3.3333333333333344  C 27.388888888888893 1.4923958333333331  25.94623958333333 0  24.16666666666668 0  C 20.894852430555552 2.9166666666666683  17.015800347222225 6.666666666666669  10.472222222222216 6.666666666666669  L 2.416666666666661 6.666666666666669  C 1.0819618055555535 6.666666666666669  0 7.7859375  0 9.166666666666671  L 0 14.16666666666667  C 0 15.547395833333342  1.0819618055555535 16.66666666666667  2.416666666666661 16.66666666666667  L 4.594838541666665 16.66666666666667  C 3.651230902777775 20.033854166666675  4.71964930555555 22.728072916666672  5.542071180555551 25.3875  C 5.627762152777779 25.664583333333344  5.804027777777785 25.90276041666667  6.041616319444439 26.05833333333334  C 7.087831597222225 26.743489583333346  9.483100694444438 26.873802083333345  10.76282638888889 26.326614583333345  C 11.570697916666663 25.98114583333334  11.767756944444443 24.89833333333334  11.14153819444444 24.26739583333335  C 10.20971180555556 23.328541666666677  9.624274305555558 22.345000000000006  10.144914930555547 21.097708333333337  C 10.228038954986427 20.898912406658205  10.208237871784352 20.670100615649112  10.092302083333333 20.48973958333334  C 9.271189236111107 19.204375000000006  9.912008680555557 17.255000000000013  11.528053819444436 16.700572916666673  C 17.44042881944445 17.07744791666667  21.07489409722222 20.577135416666675  24.16666666666668 23.333333333333343  C 25.94623958333333 23.333333333333343  27.388888888888893 21.840937500000006  27.388888888888893 20.000000000000004  L 27.388888888888893 14.023854166666666  Z M 24 4.382500000000005  L 24 18.950781250000013  C 21.417255208333327 16.608125000000005  17.87160243055555 14.110156250000006  12.888888888888893 13.48296875000001  L 12.888888888888893 9.850312500000006  C 17.87160243055555 9.223125000000001  21.417255208333327 6.7252083333333355  24 4.382500000000005  Z " fill-rule="nonzero" fill="#f9f9f9" stroke="none" transform="matrix(1 0 0 1 7 403 )" />
  </g>
</svg>