<?xml version="1.0" encoding="utf-8"?>
<svg version="1.1" xmlns:xlink="http://www.w3.org/1999/xlink" width="28px" height="29px" xmlns="http://www.w3.org/2000/svg">
  <g transform="matrix(1 0 0 1 -7 -326 )">
    <path d="M 27.287819602272727 21.444140625000003  C 27.623401988636363 21.2005859375  27.84090909090909 20.8154296875  27.84090909090909 20.390625  L 27.84090909090909 1.359375  C 27.84090909090909 0.6060546874999999  27.175958806818183 0  26.349431818181817 0  L 5.965909090909091 0  C 2.6722301136363638 0  0 2.435546875  0 5.4375  L 0 23.5625  C 0 26.564453125  2.6722301136363638 29  5.965909090909091 29  L 26.349431818181817 29  C 27.175958806818183 29  27.84090909090909 28.3939453125  27.84090909090909 27.640625  L 27.84090909090909 26.734375  C 27.84090909090909 26.3095703125  27.623401988636363 25.9244140625  27.287819602272727 25.6751953125  C 27.026811079545453 24.802929687499997  27.026811079545453 22.31640625  27.287819602272727 21.444140625000003  Z M 7.954545454545455 8.72265625  L 7.954545454545455 7.58984375  C 7.954545454545455 7.4029296874999995  8.122336647727273 7.25  8.327414772727273 7.25  L 21.502130681818183 7.25  C 21.707208806818183 7.25  21.875 7.4029296874999995  21.875 7.58984375  L 21.875 8.72265625  C 21.875 8.909570312500001  21.707208806818183 9.0625  21.502130681818183 9  L 8.327414772727273 9  C 8.122336647727273 9.0625  7.954545454545455 8.909570312500001  7.954545454545455 8.72265625  Z M 7.954545454545455 12.34765625  L 7.954545454545455 11.21484375  C 7.954545454545455 11.027929687499999  8.122336647727273 10.875  8.327414772727273 11  L 21.502130681818183 11  C 21.707208806818183 10.875  21.875 11.027929687499999  21.875 11.21484375  L 21.875 12.34765625  C 21.875 12.534570312500001  21.707208806818183 12.6875  21.502130681818183 13  L 8.327414772727273 13  C 8.122336647727273 12.6875  7.954545454545455 12.534570312500001  7.954545454545455 12.34765625  Z M 23.70205965909091 21.75  C 23.583984375 22.718554687500003  23.583984375 24.406445312499997  23.70205965909091 25  L 5.965909090909091 25  C 4.8659446022727275 25.375  3.9772727272727275 24.5650390625  3.9772727272727275 23.5625  C 3.9772727272727275 22.565624999999997  4.872159090909091 21.75  5.965909090909091 21.75  L 23.70205965909091 21.75  Z " fill-rule="nonzero" fill="#f9f9f9" stroke="none" transform="matrix(1 0 0 1 7 326 )" />
  </g>
</svg>