<?xml version="1.0" encoding="utf-8"?>
<svg version="1.1" xmlns:xlink="http://www.w3.org/1999/xlink" width="28px" height="34px" xmlns="http://www.w3.org/2000/svg">
  <g transform="matrix(1 0 0 1 -7 -113 )">
    <path d="M 5.965909090909091 8.5  C 5.965909090909091 13.194921874999999  9.526811079545455 17  13.920454545454545 17  C 18.314098011363637 17  21.875 13.194921874999999  21.875 8.5  C 21.875 3.8050781249999996  18.314098011363637 0  13.920454545454545 0  C 9.526811079545455 0  5.965909090909091 3.8050781249999996  5.965909090909091 8.5  Z M 27.84090909090909 28.049999999999997  C 27.84090909090909 23.262109375  24.304865056818183 19.390625  19.87393465909091 19.164843750000003  L 16.90340909090909 31.875  L 14.914772727272728 22.84375  L 16.90340909090909 19.125  L 10.9375 19.125  L 12.926136363636363 22.84375  L 10.9375 31.875  L 7.966974431818182 19.164843750000003  C 3.536044034090909 19.390625  0 23.262109375  0 28.049999999999997  L 0 30.8125  C 0 32.572265625  1.3361150568181819 34  2.9829545454545454 34  L 24.857954545454547 34  C 26.50479403409091 34  27.84090909090909 32.572265625  27.84090909090909 30.8125  L 27.84090909090909 28.049999999999997  Z " fill-rule="nonzero" fill="#f9f9f9" stroke="none" transform="matrix(1 0 0 1 7 113 )" />
  </g>
</svg>