<?xml version="1.0" encoding="utf-8"?>
<svg version="1.1" xmlns:xlink="http://www.w3.org/1999/xlink" width="29px" height="29px" xmlns="http://www.w3.org/2000/svg">
  <g transform="matrix(1 0 0 1 -7 -512 )">
    <path d="M 14.5 0  C 22.50756653225806 0  29 6.494772177419358  29 14.5  C 29 22.509905241935478  22.50756653225806 29  14.5 29  C 6.49243346774194 29  0 22.509905241935478  0 14.5  C 0 6.494772177419358  6.49243346774194 0  14.5 0  Z M 17.189516129032253 20.112903225806456  C 17.189516129032253 18.62753024193548  15.985372983870969 17.42338709677419  14.5 17.42338709677419  C 13.014627016129031 17.42338709677419  11.81048387096774 18.62753024193548  11.81048387096774 20.112903225806456  C 11.81048387096774 21.598276209677415  13.014627016129031 22.802419354838708  14.5 22.802419354838708  C 15.985372983870969 22.802419354838708  17.189516129032253 21.598276209677415  17.189516129032253 20.112903225806456  Z M 12.647040322580649 7.016129032258063  C 12.244548387096774 7.016129032258063  11.924612903225809 7.354072580645165  11.946538306451611 7.7559798387096786  L 12.380252016129031 15.707592741935489  C 12.400540322580643 16.079681451612903  12.708197580645159 16.37096774193548  13.080812499999997 16.37096774193548  L 15.919187500000003 16.37096774193548  C 16.29180241935484 16.37096774193548  16.599459677419357 16.079681451612903  16.61974798387096 15.707592741935489  L 17.053461693548396 7.7559798387096786  C 17.07538709677419 7.354072580645165  16.75539314516129 7.016129032258063  16.352901209677427 7.016129032258063  L 12.647040322580649 7.016129032258063  Z " fill-rule="nonzero" fill="#f9f9f9" stroke="none" transform="matrix(1 0 0 1 7 512 )" />
  </g>
</svg>