<?xml version="1.0" encoding="utf-8"?>
<svg version="1.1" xmlns:xlink="http://www.w3.org/1999/xlink" width="29px" height="23px" xmlns="http://www.w3.org/2000/svg">
  <g transform="matrix(1 0 0 1 -7 -368 )">
    <path d="M 29 10.0625  C 29 9.667187499999999  28.673750000000002 9.34375  28.275 9.34375  L 25.375 9.34375  L 25.375 6.46875  C 25.375 6.0734375  25.048750000000002 5.75  24.65 5.75  L 23.200000000000003 5.75  C 22.80125 5.75  22.475 6.0734375  22.475 6.46875  L 22.475 9.34375  L 19.575000000000003 9.34375  C 19.17625 9.34375  18.85 9.667187499999999  18.85 10.0625  L 18.85 11.5  C 18.85 11.895312500000001  19.17625 12.21875  19.575000000000003 12.21875  L 22.475 12.21875  L 22.475 15.09375  C 22.475 15.489062500000001  22.80125 15.8125  23.200000000000003 15.8125  L 24.65 15.8125  C 25.048750000000002 15.8125  25.375 15.489062500000001  25.375 15.09375  L 25.375 12.21875  L 28.275 12.21875  C 28.673750000000002 12.21875  29 11.895312500000001  29 11.5  L 29 10.0625  Z M 4.35 5.75  C 4.35 8.925976562499999  6.94640625 11.5  10.149999999999999 11.5  C 13.35359375 11.5  15.950000000000001 8.925976562499999  15.950000000000001 5.75  C 15.950000000000001 2.5740234374999997  13.35359375 0  10.149999999999999 0  C 6.94640625 0  4.35 2.5740234374999997  4.35 5.75  Z M 20.299999999999997 18.974999999999998  C 20.299999999999997 15.641796874999999  17.572187500000002 12.9375  14.209999999999999 12.9375  L 13.45328125 12.9375  C 12.44734375 13.395703124999999  11.328125 13.65625  10.149999999999999 13.65625  C 8.971875 13.65625  7.8571875 13.395703124999999  6.84671875 12.9375  L 6.09 12.9375  C 2.7278124999999998 12.9375  0 15.641796874999999  0 18.974999999999998  L 0 20.84375  C 0 22.0341796875  0.9742187499999999 23  2.175 23  L 18.125 23  C 19.32578125 23  20.299999999999997 22.0341796875  20.299999999999997 20.84375  L 20.299999999999997 18.974999999999998  Z " fill-rule="nonzero" fill="#f9f9f9" stroke="none" transform="matrix(1 0 0 1 7 368 )" />
  </g>
</svg>