<?xml version="1.0" encoding="utf-8"?>
<svg version="1.1" xmlns:xlink="http://www.w3.org/1999/xlink" width="29px" height="29px" xmlns="http://www.w3.org/2000/svg">
  <g transform="matrix(1 0 0 1 -7 -471 )">
    <path d="M 29 14.5  C 29 6.489919354838709  22.510080645161292 0  14.5 0  C 6.489919354838709 0  0 6.489919354838709  0 14.5  C 0 22.510080645161292  6.489919354838709 29  14.5 29  C 22.510080645161292 29  29 22.510080645161292  29 14.5  Z M 18.820766129032254 20.317540322580662  C 18.592741935483875 20.62741935483871  18.154233870967747 20.697580645161292  17.838508064516127 20.469556451612917  L 12.681653225806457 16.721774193548377  C 12.500403225806458 16.587298387096755  12.395161290322582 16.376814516129038  12.395161290322582 16.154637096774206  L 12.395161290322582 6.314516129032252  C 12.395161290322582 5.928629032258079  12.710887096774188 5.612903225806457  13.096774193548377 5.612903225806457  L 15.903225806451621 5.612903225806457  C 16.289112903225796 5.612903225806457  16.604838709677416 5.928629032258079  16.604838709677416 6.314516129032252  L 16.604838709677416 14.365524193548378  L 20.317540322580662 17.06673387096775  C 20.633266129032254 17.294758064516124  20.697580645161292 17.733266129032252  20.469556451612917 18.048991935483876  L 18.820766129032254 20.317540322580662  Z " fill-rule="nonzero" fill="#f9f9f9" stroke="none" transform="matrix(1 0 0 1 7 471 )" />
  </g>
</svg>