<?xml version="1.0" encoding="utf-8"?>
<svg version="1.1" xmlns:xlink="http://www.w3.org/1999/xlink" width="29px" height="23px" xmlns="http://www.w3.org/2000/svg">
  <g transform="matrix(1 0 0 1 -7 -242 )">
    <path d="M 28.943359375 16.53125  C 28.943359375 12.955917968749999  26.03618194580078 10.0625  22.44384765625 10.0625  C 18.85151336669922 10.0625  15.9443359375 12.955917968749999  15.9443359375 16.53125  C 15.9443359375 20.10658203125  18.85151336669922 23  22.44384765625 23  C 26.03618194580078 23  28.943359375 20.10658203125  28.943359375 16.53125  Z M 25.33251953125 16.24869140625  L 25.33251953125 16.813808593749997  C 25.33251953125 17.053691406249996  25.135277404785157 17.249999999999996  24.89425384521484 17.249999999999996  L 22.16039672851562 17.249999999999996  C 21.919373168945313 17.249999999999996  21.722131042480466 17.053691406249996  21.722131042480466 16.813808593749997  L 21.722131042480466 13.374140624999999  C 21.722131042480466 13.1342578125  21.919373168945313 12.93794921875  22.16039672851562 12.93794921875  L 22.72774993896484 12.93794921875  C 22.968773498535153 12.93794921875  23.166015624999996 13.1342578125  23.166015624999996 13.374140624999999  L 23.166015624999996 15.8125  L 24.89425384521484 15.8125  C 25.135277404785157 15.8125  25.33251953125 16.00880859375  25.33251953125 16.24869140625  Z M 17.89057861328125 10  C 19.181453857421875 9.16001953125  20.74991241455078 8.625  22.44384765625 8.625  C 22.687579345703124 8.625  22.9277001953125 8.63982421875  23.166015625 8.66138671875  L 23.166015625 6.46875  C 23.166015625 5.3187500000000005  22.15498046875 4.3125  20.99951171875 4.3125  L 17.388671875 4.3125  L 17.388671875 2.15625  C 17.388671875 1.0062499999999999  16.37763671875 0  15.22216796875 0  L 8.00048828125 0  C 6.845019531250001 0  5.833984375000001 1.0062499999999999  5.833984375000001 2.15625  L 5.833984375000001 4.3125  L 2.223144531250001 4.3125  C 1.0676757812500006 4.3125  0.056640625000000805 5.3187500000000005  0.056640625000000805 6.46875  L 0.056640625000000805 10  L 17.89057861328125 10  Z M 14.5 2.875  L 14.5 4.3125  L 8.72265625 4.3125  L 8.72265625 2.875  L 14.5 2.875  Z M 14.5 16.53125  C 14.5 15.7828515625  14.61193603515625 15.06140625  14.807824096679687 14.375  L 9.44482421875 14.375  C 9.045826416015625 14.375  8.72265625 14.053359375  8.72265625 13.65625  L 8.72265625 11.5  L 0.056640625000000805 11.5  L 0.056640625000000805 17.96875  C 0.056640625000000805 19.118750000000002  1.0676757812500006 20.125  2.223144531250001 20  L 15.376982727050782 20  C 14.820462036132815 19.045078125  14.5 17.8258984375  14.5 16.53125  Z " fill-rule="nonzero" fill="#f9f9f9" stroke="none" transform="matrix(1 0 0 1 7 242 )" />
  </g>
</svg>