<?xml version="1.0" encoding="utf-8"?>
<svg version="1.1" xmlns:xlink="http://www.w3.org/1999/xlink" width="29px" height="20px" xmlns="http://www.w3.org/2000/svg">
  <g transform="matrix(1 0 0 1 -7 -442 )">
    <path d="M 3.625 5  C 3.625 7.763392857142857  5.89515625 10  8.7 10  C 11.504843750000001 10  13.774999999999999 7.763392857142857  13.774999999999999 5  C 13.774999999999999 2.236607142857143  11.504843750000001 0  8.7 0  C 5.89515625 0  3.625 2.236607142857143  3.625 5  Z M 17.4 16.571428571428573  C 17.4 13.732142857142858  15.061875 11.428571428571427  12.18 11.428571428571427  L 11.80390625 11.428571428571427  C 10.86140625 11.875  9.8146875 12.142857142857142  8.7 12.142857142857142  C 7.5853125 12.142857142857142  6.543125 11.875  5.59609375 11.428571428571427  L 5.22 11.428571428571427  C 2.3381250000000002 11.428571428571427  0 13.732142857142858  0 16.571428571428573  L 0 17.857142857142858  C 0 19.040178571428573  0.9742187499999999 20  2.175 20  L 15.225000000000001 20  C 16.42578125 20  17.4 19.040178571428573  17.4 17.857142857142858  L 17.4 16.571428571428573  Z M 17.4 5.7142857142857135  C 17.4 8.080357142857142  19.348437500000003 10  21.75 10  C 24.151562499999997 10  26.1 8.080357142857142  26.1 5.7142857142857135  C 26.1 3.3482142857142856  24.151562499999997 1.4285714285714284  21.75 1.4285714285714284  C 19.348437500000003 1.4285714285714284  17.4 3.3482142857142856  17.4 5.7142857142857135  Z M 29 16.428571428571427  C 29 13.665178571428571  26.72984375 11.428571428571427  23.924999999999997 11.428571428571427  L 23.7528125 11.428571428571427  C 23.122968750000002 11.642857142857144  22.456875 11.785714285714286  21.75 11.785714285714286  C 21.043125 11.785714285714286  20.377031249999998 11.642857142857144  19.7471875 11.428571428571427  L 19.575000000000003 11.428571428571427  C 18.650624999999998 11.428571428571427  17.798750000000002 11.691964285714285  17.05109375 12.116071428571429  C 18.15671875 13.290178571428573  18.85 14.848214285714285  18.85 16.571428571428573  L 18.85 18.285714285714285  C 18.85 18.383928571428573  18.827343749999997 18.47767857142857  18.8228125 18.571428571428573  L 26.825000000000003 18.571428571428573  C 28.02578125 18.571428571428573  29 17.611607142857142  29 16.428571428571427  Z " fill-rule="nonzero" fill="#f9f9f9" stroke="none" transform="matrix(1 0 0 1 7 442 )" />
  </g>
</svg>