<?xml version="1.0" encoding="utf-8"?>
<svg version="1.1" xmlns:xlink="http://www.w3.org/1999/xlink" width="30px" height="24px" xmlns="http://www.w3.org/2000/svg">
  <g transform="matrix(1 0 0 1 -6 -283 )">
    <path d="M 24.33854166666665 9.930555555555552  L 24.48437500000001 10.646367521367527  C 24.48437500000001 10.646367521367527  24.88020833333335 12.633547008547025  24.96874999999999 13.05021367521368  L 23.229166666666664 13.05021367521368  C 23.40104166666665 12.574786324786322  24.06250000000001 10.726495726495719  24.06250000000001 10.726495726495719  C 24.052083333333325 10.742521367521372  24.234375 10.240384615384615  24.33854166666665 9.930555555555552  Z M 27.49999999999999 0  C 28.880208333333325 0  30 1.1485042735042814  30 2.5641025641025754  L 30 21.367521367521373  C 30 22.783119658119666  28.880208333333325 23.931623931623946  27.49999999999999 24  L 2.5000000000000115 24  C 1.1197916666666743 23.931623931623946  0 22.783119658119666  0 21.367521367521373  L 0 2.5641025641025754  C 0 1.1485042735042814  1.1197916666666743 0  2.5000000000000115 0  L 27.49999999999999 0  Z M 5.729166666666651 15.982905982905987  L 7.9427083333333375 15.982905982905987  L 11.23437499999999 7.692307692307693  L 9.020833333333337 7.692307692307693  L 6.973958333333348 13.35470085470087  L 6.75 12.20619658119659  L 6.020833333333337 8.392094017094013  C 5.901041666666674 7.86324786324786  5.53125 7.713675213675218  5.072916666666651 7.692307692307693  L 1.7031250000000115 7.692307692307693  L 1.6666666666666627 7.8579059829059865  C 2.489583333333326 8.071581196581205  3.2239583333333486 8.381410256410268  3.864583333333337 8.771367521367527  L 5.729166666666651 15.982905982905987  Z M 10.770833333333348 15.993589743589766  L 12.859375000000012 15.993589743589766  L 14.171875000000012 7.692307692307693  L 12.078124999999988 7.692307692307693  L 10.770833333333348 15.993589743589766  Z M 16.5 16.111111111111104  C 18.697916666666675 16.116452991453013  20.130208333333336 15  20.14583333333335 13.27991452991455  C 20.15625 12.334401709401707  19.59375 11.61324786324786  18.39062500000001 11.020299145299166  C 17.65624999999999 10.641025641025653  17.208333333333325 10.384615384615385  17.208333333333325 9.994658119658126  C 17.21875000000001 9.642094017094013  17.58854166666665 9.278846153846153  18.411458333333346 9.278846153846153  C 19.09375000000001 9.2628205128205  19.59375 9.428418803418797  19.96875 9.59401709401709  L 20.15625 9.684829059829063  L 20.442708333333325 7.889957264957258  C 20.03125000000001 7.724358974358963  19.37500000000001 7.537393162393178  18.567708333333325 7.537393162393178  C 16.5 7.537393162393178  15.046875 8.669871794871806  15.03645833333335 10.283119658119666  C 15.020833333333336 11.474358974358998  16.078125 12.13675213675214  16.869791666666675 12.53739316239318  C 17.677083333333325 12.943376068376086  17.953125 13.210470085470103  17.953125 13.56837606837609  C 17.942708333333346 14.12393162393164  17.296875 14.380341880341874  16.697916666666654 14.380341880341874  C 15.86458333333334 14.380341880341874  15.416666666666675 14.246794871794883  14.734375000000012 13.93696581196582  L 14.458333333333337 13.803418803418795  L 14.166666666666652 15.667735042735051  C 14.656249999999988 15.897435897435921  15.562500000000002 16.10042735042736  16.5 16.111111111111104  Z M 25.562500000000014 15.993589743589766  L 27.49999999999999 15.993589743589766  L 25.81249999999999 7.692307692307693  L 24.192708333333325 7.692307692307693  C 23.692708333333336 7.692307692307693  23.31250000000001 7.841880341880334  23.098958333333346 8.381410256410268  L 19.989583333333336 15.993589743589766  L 22.18750000000001 15.993589743589766  C 22.18750000000001 15.993589743589766  22.546875 14.96794871794873  22.62499999999999 14.74893162393164  L 25.3125 14.74893162393164  C 25.37500000000001 15.04273504273505  25.562500000000014 15.993589743589766  25.562500000000014 15.993589743589766  Z " fill-rule="nonzero" fill="#f9f9f9" stroke="none" transform="matrix(1 0 0 1 6 283 )" />
  </g>
</svg>